<?xml version="1.0" encoding="utf-8" standalone="no"?>
<!DOCTYPE svg PUBLIC "-//W3C//DTD SVG 1.1//EN"
  "http://www.w3.org/Graphics/SVG/1.1/DTD/svg11.dtd">
<!-- Created with matplotlib (http://matplotlib.org/) -->
<svg height="288pt" version="1.1" viewBox="0 0 432 288" width="432pt" xmlns="http://www.w3.org/2000/svg" xmlns:xlink="http://www.w3.org/1999/xlink">
 <defs>
  <style type="text/css">
*{stroke-linecap:butt;stroke-linejoin:round;}
  </style>
 </defs>
 <g id="figure_1">
  <g id="patch_1">
   <path d="M 0 288 
L 432 288 
L 432 0 
L 0 0 
z
" style="fill:#ffffff;"/>
  </g>
  <g id="axes_1">
   <g id="patch_2">
    <path clip-path="url(#pa188b9a0c1)" d="M 157.519355 138.790076 
Q 195.5522 107.418457 243.953029 107.14099 
L 243.944431 105.641015 
Q 247.966629 106.618661 251.953726 107.804884 
Q 247.873208 108.617854 243.967361 109.640949 
L 243.958762 108.140974 
Q 195.913905 108.4164 158.155672 139.561504 
L 157.519355 138.790076 
z
" style="stroke:#000000;stroke-linecap:round;"/>
   </g>
   <g id="patch_3">
    <path clip-path="url(#pa188b9a0c1)" d="M 157.363676 138.689849 
Q 201.944784 94.108741 246.525892 49.527633 
L 245.465232 48.466973 
Q 249.000887 46.345531 252.536542 44.224089 
Q 250.415101 47.759745 248.293659 51.2954 
L 247.232999 50.23474 
Q 202.651891 94.815848 158.070783 139.396956 
L 157.363676 138.689849 
z
" style="fill:#ffa07a;stroke:#ffa07a;stroke-linecap:round;"/>
   </g>
   <g id="patch_4">
    <path clip-path="url(#pa188b9a0c1)" d="M 254.449126 44.810067 
Q 254.449126 71.360825 254.449126 97.911583 
L 255.949126 97.911583 
Q 254.949126 101.911258 253.949126 105.910933 
Q 252.949126 101.911258 251.949126 97.911583 
L 253.449126 97.911583 
Q 253.449126 71.360825 253.449126 44.810067 
L 254.449126 44.810067 
z
" style="fill:#0000ff;stroke:#0000ff;stroke-linecap:round;"/>
   </g>
   <g id="patch_5">
    <path clip-path="url(#pa188b9a0c1)" d="M 334.476889 146.840501 
C 334.424259 135.659006 331.214293 124.871198 325.045064 115.14274 
C 318.875834 105.414281 309.876896 96.949473 298.60353 90.270637 
C 287.330164 83.591801 274.019114 78.839194 259.49174 76.306077 
C 244.964366 73.77296 229.525747 73.51253 214.128524 75.540855 
C 198.731302 77.56918 183.698823 81.843665 169.958667 88.100554 
C 156.218511 94.357442 144.059227 102.465337 134.231103 111.923939 
C 124.40298 121.382542 117.112411 131.993219 112.809262 143.101237 
C 108.506113 154.209255 107.280752 165.581343 109.208789 176.515785 
" style="fill:none;stroke:#000000;stroke-linejoin:miter;"/>
   </g>
   <g id="patch_6">
    <path clip-path="url(#pa188b9a0c1)" d="M 208.011152 168.529865 
C 206.887311 162.156248 200.73913 156.930998 190.930799 154.013521 
C 181.122467 151.096044 168.437366 150.719355 155.690132 152.967036 
C 142.942897 155.214718 131.151637 159.907249 122.932656 166.003428 
C 114.713675 172.099607 110.723416 179.112537 111.847256 185.486155 
" style="fill:none;opacity:0.3;stroke:#000000;stroke-linejoin:miter;stroke-width:10;"/>
    <path clip-path="url(#pa188b9a0c1)" d="M 206.011152 164.529865 
C 204.887311 158.156248 198.73913 152.930998 188.930799 150.013521 
C 179.122467 147.096044 166.437366 146.719355 153.690132 148.967036 
C 140.942897 151.214718 129.151637 155.907249 120.932656 162.003428 
C 112.713675 168.099607 108.723416 175.112537 109.847256 181.486155 
" style="fill:none;stroke:#000000;stroke-linejoin:miter;"/>
    <g id="patch_7">
     <path clip-path="url(#pa188b9a0c1)" d="M 336.332953 149.429254 
C 334.834498 140.931098 326.636924 133.964098 313.559148 130.074128 
C 300.481373 126.184158 283.567906 125.681907 266.571593 128.678815 
C 249.57528 131.675724 233.853599 137.932433 222.894958 146.060671 
C 211.936318 154.188909 206.615971 163.539483 208.114426 172.03764 
" style="fill:none;opacity:0.3;stroke:#000000;stroke-linejoin:miter;stroke-width:10;"/>
     <path clip-path="url(#pa188b9a0c1)" d="M 334.332953 145.429254 
C 332.834498 136.931098 324.636924 129.964098 311.559148 126.074128 
C 298.481373 122.184158 281.567906 121.681907 264.571593 124.678815 
C 247.57528 127.675724 231.853599 133.932433 220.894958 142.060671 
C 209.936318 150.188909 204.615971 159.539483 206.114426 168.03764 
" style="fill:none;stroke:#000000;stroke-linejoin:miter;"/>
     <g id="text_1">
      <!-- $\mathbf{C}_n$ -->
      <defs>
       <path d="M 67 4 
Q 61.8125 1.3125 56.203125 -0.046875 
Q 50.59375 -1.421875 44.484375 -1.421875 
Q 26.265625 -1.421875 15.625 8.765625 
Q 4.984375 18.953125 4.984375 36.375 
Q 4.984375 53.859375 15.625 64.03125 
Q 26.265625 74.21875 44.484375 74.21875 
Q 50.59375 74.21875 56.203125 72.84375 
Q 61.8125 71.484375 67 68.796875 
L 67 53.71875 
Q 61.765625 57.28125 56.6875 58.9375 
Q 51.609375 60.59375 46 60.59375 
Q 35.9375 60.59375 30.171875 54.140625 
Q 24.421875 47.703125 24.421875 36.375 
Q 24.421875 25.09375 30.171875 18.640625 
Q 35.9375 12.203125 46 12.203125 
Q 51.609375 12.203125 56.6875 13.859375 
Q 61.765625 15.53125 67 19.09375 
z
" id="DejaVuSans-Bold-43"/>
       <path d="M 55.71875 33.015625 
L 49.3125 0 
L 40.28125 0 
L 46.6875 32.671875 
Q 47.125 34.96875 47.359375 36.71875 
Q 47.609375 38.484375 47.609375 39.5 
Q 47.609375 43.609375 45.015625 45.890625 
Q 42.4375 48.1875 37.796875 48.1875 
Q 30.5625 48.1875 25.34375 43.375 
Q 20.125 38.578125 18.5 30.328125 
L 12.5 0 
L 3.515625 0 
L 14.109375 54.6875 
L 23.09375 54.6875 
L 21.296875 46.09375 
Q 25.046875 50.828125 30.3125 53.40625 
Q 35.59375 56 41.40625 56 
Q 48.640625 56 52.609375 52.09375 
Q 56.59375 48.1875 56.59375 41.109375 
Q 56.59375 39.359375 56.375 37.359375 
Q 56.15625 35.359375 55.71875 33.015625 
z
" id="DejaVuSans-Oblique-6e"/>
      </defs>
      <g transform="translate(136.772272 140.458884)scale(0.16 -0.16)">
       <use transform="translate(0 0.78125)" xlink:href="#DejaVuSans-Bold-43"/>
       <use transform="translate(74.345703 -15.625)scale(0.7)" xlink:href="#DejaVuSans-Oblique-6e"/>
      </g>
     </g>
     <g id="text_2">
      <!-- $\mathbf{C}_{n+1}$ -->
      <defs>
       <path d="M 46 62.703125 
L 46 35.5 
L 73.1875 35.5 
L 73.1875 27.203125 
L 46 27.203125 
L 46 0 
L 37.796875 0 
L 37.796875 27.203125 
L 10.59375 27.203125 
L 10.59375 35.5 
L 37.796875 35.5 
L 37.796875 62.703125 
z
" id="DejaVuSans-2b"/>
       <path d="M 12.40625 8.296875 
L 28.515625 8.296875 
L 28.515625 63.921875 
L 10.984375 60.40625 
L 10.984375 69.390625 
L 28.421875 72.90625 
L 38.28125 72.90625 
L 38.28125 8.296875 
L 54.390625 8.296875 
L 54.390625 0 
L 12.40625 0 
z
" id="DejaVuSans-31"/>
      </defs>
      <g transform="translate(257.204039 107.909758)scale(0.16 -0.16)">
       <use transform="translate(0 0.78125)" xlink:href="#DejaVuSans-Bold-43"/>
       <use transform="translate(74.345703 -15.625)scale(0.7)" xlink:href="#DejaVuSans-Oblique-6e"/>
       <use transform="translate(132.348633 -15.625)scale(0.7)" xlink:href="#DejaVuSans-2b"/>
       <use transform="translate(204.638672 -15.625)scale(0.7)" xlink:href="#DejaVuSans-31"/>
      </g>
     </g>
     <g id="text_3">
      <!-- geodesic -->
      <defs>
       <path d="M 45.40625 27.984375 
Q 45.40625 37.75 41.375 43.109375 
Q 37.359375 48.484375 30.078125 48.484375 
Q 22.859375 48.484375 18.828125 43.109375 
Q 14.796875 37.75 14.796875 27.984375 
Q 14.796875 18.265625 18.828125 12.890625 
Q 22.859375 7.515625 30.078125 7.515625 
Q 37.359375 7.515625 41.375 12.890625 
Q 45.40625 18.265625 45.40625 27.984375 
z
M 54.390625 6.78125 
Q 54.390625 -7.171875 48.1875 -13.984375 
Q 42 -20.796875 29.203125 -20.796875 
Q 24.46875 -20.796875 20.265625 -20.09375 
Q 16.0625 -19.390625 12.109375 -17.921875 
L 12.109375 -9.1875 
Q 16.0625 -11.328125 19.921875 -12.34375 
Q 23.78125 -13.375 27.78125 -13.375 
Q 36.625 -13.375 41.015625 -8.765625 
Q 45.40625 -4.15625 45.40625 5.171875 
L 45.40625 9.625 
Q 42.625 4.78125 38.28125 2.390625 
Q 33.9375 0 27.875 0 
Q 17.828125 0 11.671875 7.65625 
Q 5.515625 15.328125 5.515625 27.984375 
Q 5.515625 40.671875 11.671875 48.328125 
Q 17.828125 56 27.875 56 
Q 33.9375 56 38.28125 53.609375 
Q 42.625 51.21875 45.40625 46.390625 
L 45.40625 54.6875 
L 54.390625 54.6875 
z
" id="DejaVuSans-67"/>
       <path d="M 56.203125 29.59375 
L 56.203125 25.203125 
L 14.890625 25.203125 
Q 15.484375 15.921875 20.484375 11.0625 
Q 25.484375 6.203125 34.421875 6.203125 
Q 39.59375 6.203125 44.453125 7.46875 
Q 49.3125 8.734375 54.109375 11.28125 
L 54.109375 2.78125 
Q 49.265625 0.734375 44.1875 -0.34375 
Q 39.109375 -1.421875 33.890625 -1.421875 
Q 20.796875 -1.421875 13.15625 6.1875 
Q 5.515625 13.8125 5.515625 26.8125 
Q 5.515625 40.234375 12.765625 48.109375 
Q 20.015625 56 32.328125 56 
Q 43.359375 56 49.78125 48.890625 
Q 56.203125 41.796875 56.203125 29.59375 
z
M 47.21875 32.234375 
Q 47.125 39.59375 43.09375 43.984375 
Q 39.0625 48.390625 32.421875 48.390625 
Q 24.90625 48.390625 20.390625 44.140625 
Q 15.875 39.890625 15.1875 32.171875 
z
" id="DejaVuSans-65"/>
       <path d="M 30.609375 48.390625 
Q 23.390625 48.390625 19.1875 42.75 
Q 14.984375 37.109375 14.984375 27.296875 
Q 14.984375 17.484375 19.15625 11.84375 
Q 23.34375 6.203125 30.609375 6.203125 
Q 37.796875 6.203125 41.984375 11.859375 
Q 46.1875 17.53125 46.1875 27.296875 
Q 46.1875 37.015625 41.984375 42.703125 
Q 37.796875 48.390625 30.609375 48.390625 
z
M 30.609375 56 
Q 42.328125 56 49.015625 48.375 
Q 55.71875 40.765625 55.71875 27.296875 
Q 55.71875 13.875 49.015625 6.21875 
Q 42.328125 -1.421875 30.609375 -1.421875 
Q 18.84375 -1.421875 12.171875 6.21875 
Q 5.515625 13.875 5.515625 27.296875 
Q 5.515625 40.765625 12.171875 48.375 
Q 18.84375 56 30.609375 56 
z
" id="DejaVuSans-6f"/>
       <path d="M 45.40625 46.390625 
L 45.40625 75.984375 
L 54.390625 75.984375 
L 54.390625 0 
L 45.40625 0 
L 45.40625 8.203125 
Q 42.578125 3.328125 38.25 0.953125 
Q 33.9375 -1.421875 27.875 -1.421875 
Q 17.96875 -1.421875 11.734375 6.484375 
Q 5.515625 14.40625 5.515625 27.296875 
Q 5.515625 40.1875 11.734375 48.09375 
Q 17.96875 56 27.875 56 
Q 33.9375 56 38.25 53.625 
Q 42.578125 51.265625 45.40625 46.390625 
z
M 14.796875 27.296875 
Q 14.796875 17.390625 18.875 11.75 
Q 22.953125 6.109375 30.078125 6.109375 
Q 37.203125 6.109375 41.296875 11.75 
Q 45.40625 17.390625 45.40625 27.296875 
Q 45.40625 37.203125 41.296875 42.84375 
Q 37.203125 48.484375 30.078125 48.484375 
Q 22.953125 48.484375 18.875 42.84375 
Q 14.796875 37.203125 14.796875 27.296875 
z
" id="DejaVuSans-64"/>
       <path d="M 44.28125 53.078125 
L 44.28125 44.578125 
Q 40.484375 46.53125 36.375 47.5 
Q 32.28125 48.484375 27.875 48.484375 
Q 21.1875 48.484375 17.84375 46.4375 
Q 14.5 44.390625 14.5 40.28125 
Q 14.5 37.15625 16.890625 35.375 
Q 19.28125 33.59375 26.515625 31.984375 
L 29.59375 31.296875 
Q 39.15625 29.25 43.1875 25.515625 
Q 47.21875 21.78125 47.21875 15.09375 
Q 47.21875 7.46875 41.1875 3.015625 
Q 35.15625 -1.421875 24.609375 -1.421875 
Q 20.21875 -1.421875 15.453125 -0.5625 
Q 10.6875 0.296875 5.421875 2 
L 5.421875 11.28125 
Q 10.40625 8.6875 15.234375 7.390625 
Q 20.0625 6.109375 24.8125 6.109375 
Q 31.15625 6.109375 34.5625 8.28125 
Q 37.984375 10.453125 37.984375 14.40625 
Q 37.984375 18.0625 35.515625 20.015625 
Q 33.0625 21.96875 24.703125 23.78125 
L 21.578125 24.515625 
Q 13.234375 26.265625 9.515625 29.90625 
Q 5.8125 33.546875 5.8125 39.890625 
Q 5.8125 47.609375 11.28125 51.796875 
Q 16.75 56 26.8125 56 
Q 31.78125 56 36.171875 55.265625 
Q 40.578125 54.546875 44.28125 53.078125 
z
" id="DejaVuSans-73"/>
       <path d="M 9.421875 54.6875 
L 18.40625 54.6875 
L 18.40625 0 
L 9.421875 0 
z
M 9.421875 75.984375 
L 18.40625 75.984375 
L 18.40625 64.59375 
L 9.421875 64.59375 
z
" id="DejaVuSans-69"/>
       <path d="M 48.78125 52.59375 
L 48.78125 44.1875 
Q 44.96875 46.296875 41.140625 47.34375 
Q 37.3125 48.390625 33.40625 48.390625 
Q 24.65625 48.390625 19.8125 42.84375 
Q 14.984375 37.3125 14.984375 27.296875 
Q 14.984375 17.28125 19.8125 11.734375 
Q 24.65625 6.203125 33.40625 6.203125 
Q 37.3125 6.203125 41.140625 7.25 
Q 44.96875 8.296875 48.78125 10.40625 
L 48.78125 2.09375 
Q 45.015625 0.34375 40.984375 -0.53125 
Q 36.96875 -1.421875 32.421875 -1.421875 
Q 20.0625 -1.421875 12.78125 6.34375 
Q 5.515625 14.109375 5.515625 27.296875 
Q 5.515625 40.671875 12.859375 48.328125 
Q 20.21875 56 33.015625 56 
Q 37.15625 56 41.109375 55.140625 
Q 45.0625 54.296875 48.78125 52.59375 
z
" id="DejaVuSans-63"/>
      </defs>
      <g transform="translate(188.850874 130.694146)scale(0.12 -0.12)">
       <use xlink:href="#DejaVuSans-67"/>
       <use x="63.476562" xlink:href="#DejaVuSans-65"/>
       <use x="125" xlink:href="#DejaVuSans-6f"/>
       <use x="186.181641" xlink:href="#DejaVuSans-64"/>
       <use x="249.658203" xlink:href="#DejaVuSans-65"/>
       <use x="311.181641" xlink:href="#DejaVuSans-73"/>
       <use x="363.28125" xlink:href="#DejaVuSans-69"/>
       <use x="391.064453" xlink:href="#DejaVuSans-63"/>
      </g>
     </g>
     <g id="patch_8">
      <path d="M 191.065676 32.140288 
Q 202.519171 47.211189 213.972666 62.282089 
L 217.157354 59.861809 
Q 218.398862 66.453529 219.64037 73.04525 
Q 213.621829 70.083951 207.603289 67.122651 
L 210.787977 64.70237 
Q 199.334482 49.631469 187.880988 34.560569 
L 191.065676 32.140288 
z
" style="stroke:#000000;stroke-linecap:round;"/>
     </g>
     <g id="text_4">
      <!-- direction of steepest  -->
      <defs>
       <path d="M 41.109375 46.296875 
Q 39.59375 47.171875 37.8125 47.578125 
Q 36.03125 48 33.890625 48 
Q 26.265625 48 22.1875 43.046875 
Q 18.109375 38.09375 18.109375 28.8125 
L 18.109375 0 
L 9.078125 0 
L 9.078125 54.6875 
L 18.109375 54.6875 
L 18.109375 46.1875 
Q 20.953125 51.171875 25.484375 53.578125 
Q 30.03125 56 36.53125 56 
Q 37.453125 56 38.578125 55.875 
Q 39.703125 55.765625 41.0625 55.515625 
z
" id="DejaVuSans-72"/>
       <path d="M 18.3125 70.21875 
L 18.3125 54.6875 
L 36.8125 54.6875 
L 36.8125 47.703125 
L 18.3125 47.703125 
L 18.3125 18.015625 
Q 18.3125 11.328125 20.140625 9.421875 
Q 21.96875 7.515625 27.59375 7.515625 
L 36.8125 7.515625 
L 36.8125 0 
L 27.59375 0 
Q 17.1875 0 13.234375 3.875 
Q 9.28125 7.765625 9.28125 18.015625 
L 9.28125 47.703125 
L 2.6875 47.703125 
L 2.6875 54.6875 
L 9.28125 54.6875 
L 9.28125 70.21875 
z
" id="DejaVuSans-74"/>
       <path d="M 54.890625 33.015625 
L 54.890625 0 
L 45.90625 0 
L 45.90625 32.71875 
Q 45.90625 40.484375 42.875 44.328125 
Q 39.84375 48.1875 33.796875 48.1875 
Q 26.515625 48.1875 22.3125 43.546875 
Q 18.109375 38.921875 18.109375 30.90625 
L 18.109375 0 
L 9.078125 0 
L 9.078125 54.6875 
L 18.109375 54.6875 
L 18.109375 46.1875 
Q 21.34375 51.125 25.703125 53.5625 
Q 30.078125 56 35.796875 56 
Q 45.21875 56 50.046875 50.171875 
Q 54.890625 44.34375 54.890625 33.015625 
z
" id="DejaVuSans-6e"/>
       <path id="DejaVuSans-20"/>
       <path d="M 37.109375 75.984375 
L 37.109375 68.5 
L 28.515625 68.5 
Q 23.6875 68.5 21.796875 66.546875 
Q 19.921875 64.59375 19.921875 59.515625 
L 19.921875 54.6875 
L 34.71875 54.6875 
L 34.71875 47.703125 
L 19.921875 47.703125 
L 19.921875 0 
L 10.890625 0 
L 10.890625 47.703125 
L 2.296875 47.703125 
L 2.296875 54.6875 
L 10.890625 54.6875 
L 10.890625 58.5 
Q 10.890625 67.625 15.140625 71.796875 
Q 19.390625 75.984375 28.609375 75.984375 
z
" id="DejaVuSans-66"/>
       <path d="M 18.109375 8.203125 
L 18.109375 -20.796875 
L 9.078125 -20.796875 
L 9.078125 54.6875 
L 18.109375 54.6875 
L 18.109375 46.390625 
Q 20.953125 51.265625 25.265625 53.625 
Q 29.59375 56 35.59375 56 
Q 45.5625 56 51.78125 48.09375 
Q 58.015625 40.1875 58.015625 27.296875 
Q 58.015625 14.40625 51.78125 6.484375 
Q 45.5625 -1.421875 35.59375 -1.421875 
Q 29.59375 -1.421875 25.265625 0.953125 
Q 20.953125 3.328125 18.109375 8.203125 
z
M 48.6875 27.296875 
Q 48.6875 37.203125 44.609375 42.84375 
Q 40.53125 48.484375 33.40625 48.484375 
Q 26.265625 48.484375 22.1875 42.84375 
Q 18.109375 37.203125 18.109375 27.296875 
Q 18.109375 17.390625 22.1875 11.75 
Q 26.265625 6.109375 33.40625 6.109375 
Q 40.53125 6.109375 44.609375 11.75 
Q 48.6875 17.390625 48.6875 27.296875 
z
" id="DejaVuSans-70"/>
      </defs>
      <g style="fill:#ffa07a;" transform="translate(58.654369 13.099568)scale(0.12 -0.12)">
       <use xlink:href="#DejaVuSans-64"/>
       <use x="63.476562" xlink:href="#DejaVuSans-69"/>
       <use x="91.259766" xlink:href="#DejaVuSans-72"/>
       <use x="132.341797" xlink:href="#DejaVuSans-65"/>
       <use x="193.865234" xlink:href="#DejaVuSans-63"/>
       <use x="248.845703" xlink:href="#DejaVuSans-74"/>
       <use x="288.054688" xlink:href="#DejaVuSans-69"/>
       <use x="315.837891" xlink:href="#DejaVuSans-6f"/>
       <use x="377.019531" xlink:href="#DejaVuSans-6e"/>
       <use x="440.398438" xlink:href="#DejaVuSans-20"/>
       <use x="472.185547" xlink:href="#DejaVuSans-6f"/>
       <use x="533.367188" xlink:href="#DejaVuSans-66"/>
       <use x="568.572266" xlink:href="#DejaVuSans-20"/>
       <use x="600.359375" xlink:href="#DejaVuSans-73"/>
       <use x="652.458984" xlink:href="#DejaVuSans-74"/>
       <use x="691.667969" xlink:href="#DejaVuSans-65"/>
       <use x="753.191406" xlink:href="#DejaVuSans-65"/>
       <use x="814.714844" xlink:href="#DejaVuSans-70"/>
       <use x="878.191406" xlink:href="#DejaVuSans-65"/>
       <use x="939.714844" xlink:href="#DejaVuSans-73"/>
       <use x="991.814453" xlink:href="#DejaVuSans-74"/>
       <use x="1031.023438" xlink:href="#DejaVuSans-20"/>
      </g>
      <!--  descent on manifold -->
      <defs>
       <path d="M 52 44.1875 
Q 55.375 50.25 60.0625 53.125 
Q 64.75 56 71.09375 56 
Q 79.640625 56 84.28125 50.015625 
Q 88.921875 44.046875 88.921875 33.015625 
L 88.921875 0 
L 79.890625 0 
L 79.890625 32.71875 
Q 79.890625 40.578125 77.09375 44.375 
Q 74.3125 48.1875 68.609375 48.1875 
Q 61.625 48.1875 57.5625 43.546875 
Q 53.515625 38.921875 53.515625 30.90625 
L 53.515625 0 
L 44.484375 0 
L 44.484375 32.71875 
Q 44.484375 40.625 41.703125 44.40625 
Q 38.921875 48.1875 33.109375 48.1875 
Q 26.21875 48.1875 22.15625 43.53125 
Q 18.109375 38.875 18.109375 30.90625 
L 18.109375 0 
L 9.078125 0 
L 9.078125 54.6875 
L 18.109375 54.6875 
L 18.109375 46.1875 
Q 21.1875 51.21875 25.484375 53.609375 
Q 29.78125 56 35.6875 56 
Q 41.65625 56 45.828125 52.96875 
Q 50 49.953125 52 44.1875 
z
" id="DejaVuSans-6d"/>
       <path d="M 34.28125 27.484375 
Q 23.390625 27.484375 19.1875 25 
Q 14.984375 22.515625 14.984375 16.5 
Q 14.984375 11.71875 18.140625 8.90625 
Q 21.296875 6.109375 26.703125 6.109375 
Q 34.1875 6.109375 38.703125 11.40625 
Q 43.21875 16.703125 43.21875 25.484375 
L 43.21875 27.484375 
z
M 52.203125 31.203125 
L 52.203125 0 
L 43.21875 0 
L 43.21875 8.296875 
Q 40.140625 3.328125 35.546875 0.953125 
Q 30.953125 -1.421875 24.3125 -1.421875 
Q 15.921875 -1.421875 10.953125 3.296875 
Q 6 8.015625 6 15.921875 
Q 6 25.140625 12.171875 29.828125 
Q 18.359375 34.515625 30.609375 34.515625 
L 43.21875 34.515625 
L 43.21875 35.40625 
Q 43.21875 41.609375 39.140625 45 
Q 35.0625 48.390625 27.6875 48.390625 
Q 23 48.390625 18.546875 47.265625 
Q 14.109375 46.140625 10.015625 43.890625 
L 10.015625 52.203125 
Q 14.9375 54.109375 19.578125 55.046875 
Q 24.21875 56 28.609375 56 
Q 40.484375 56 46.34375 49.84375 
Q 52.203125 43.703125 52.203125 31.203125 
z
" id="DejaVuSans-61"/>
       <path d="M 9.421875 75.984375 
L 18.40625 75.984375 
L 18.40625 0 
L 9.421875 0 
z
" id="DejaVuSans-6c"/>
      </defs>
      <g style="fill:#ffa07a;" transform="translate(58.654369 26.536943)scale(0.12 -0.12)">
       <use xlink:href="#DejaVuSans-20"/>
       <use x="31.787109" xlink:href="#DejaVuSans-64"/>
       <use x="95.263672" xlink:href="#DejaVuSans-65"/>
       <use x="156.787109" xlink:href="#DejaVuSans-73"/>
       <use x="208.886719" xlink:href="#DejaVuSans-63"/>
       <use x="263.867188" xlink:href="#DejaVuSans-65"/>
       <use x="325.390625" xlink:href="#DejaVuSans-6e"/>
       <use x="388.769531" xlink:href="#DejaVuSans-74"/>
       <use x="427.978516" xlink:href="#DejaVuSans-20"/>
       <use x="459.765625" xlink:href="#DejaVuSans-6f"/>
       <use x="520.947266" xlink:href="#DejaVuSans-6e"/>
       <use x="584.326172" xlink:href="#DejaVuSans-20"/>
       <use x="616.113281" xlink:href="#DejaVuSans-6d"/>
       <use x="713.525391" xlink:href="#DejaVuSans-61"/>
       <use x="774.804688" xlink:href="#DejaVuSans-6e"/>
       <use x="838.183594" xlink:href="#DejaVuSans-69"/>
       <use x="865.966797" xlink:href="#DejaVuSans-66"/>
       <use x="901.171875" xlink:href="#DejaVuSans-6f"/>
       <use x="962.353516" xlink:href="#DejaVuSans-6c"/>
       <use x="990.136719" xlink:href="#DejaVuSans-64"/>
      </g>
     </g>
     <g id="text_5">
      <!-- correction -->
      <g style="fill:#0000ff;" transform="translate(260.458951 72.105719)scale(0.12 -0.12)">
       <use xlink:href="#DejaVuSans-63"/>
       <use x="54.980469" xlink:href="#DejaVuSans-6f"/>
       <use x="116.162109" xlink:href="#DejaVuSans-72"/>
       <use x="157.259766" xlink:href="#DejaVuSans-72"/>
       <use x="198.341797" xlink:href="#DejaVuSans-65"/>
       <use x="259.865234" xlink:href="#DejaVuSans-63"/>
       <use x="314.845703" xlink:href="#DejaVuSans-74"/>
       <use x="354.054688" xlink:href="#DejaVuSans-69"/>
       <use x="381.837891" xlink:href="#DejaVuSans-6f"/>
       <use x="443.019531" xlink:href="#DejaVuSans-6e"/>
      </g>
     </g>
     <g id="text_6">
      <!-- constraint manifold for $\mathbf{C^TSC} = \mathbf{1}$ -->
      <defs>
       <path d="M 0.484375 72.90625 
L 67.671875 72.90625 
L 67.671875 58.6875 
L 43.5 58.6875 
L 43.5 0 
L 24.703125 0 
L 24.703125 58.6875 
L 0.484375 58.6875 
z
" id="DejaVuSans-Bold-54"/>
       <path d="M 59.90625 70.609375 
L 59.90625 55.171875 
Q 53.90625 57.859375 48.1875 59.21875 
Q 42.484375 60.59375 37.40625 60.59375 
Q 30.671875 60.59375 27.4375 58.734375 
Q 24.21875 56.890625 24.21875 52.984375 
Q 24.21875 50.046875 26.390625 48.40625 
Q 28.5625 46.78125 34.28125 45.609375 
L 42.28125 44 
Q 54.4375 41.546875 59.5625 36.5625 
Q 64.703125 31.59375 64.703125 22.40625 
Q 64.703125 10.359375 57.546875 4.46875 
Q 50.390625 -1.421875 35.6875 -1.421875 
Q 28.765625 -1.421875 21.78125 -0.09375 
Q 14.796875 1.21875 7.8125 3.8125 
L 7.8125 19.671875 
Q 14.796875 15.96875 21.3125 14.078125 
Q 27.828125 12.203125 33.890625 12.203125 
Q 40.046875 12.203125 43.3125 14.25 
Q 46.578125 16.3125 46.578125 20.125 
Q 46.578125 23.53125 44.359375 25.390625 
Q 42.140625 27.25 35.5 28.71875 
L 28.21875 30.328125 
Q 17.28125 32.671875 12.21875 37.796875 
Q 7.171875 42.921875 7.171875 51.609375 
Q 7.171875 62.5 14.203125 68.359375 
Q 21.234375 74.21875 34.421875 74.21875 
Q 40.4375 74.21875 46.78125 73.3125 
Q 53.125 72.40625 59.90625 70.609375 
z
" id="DejaVuSans-Bold-53"/>
       <path d="M 10.59375 45.40625 
L 73.1875 45.40625 
L 73.1875 37.203125 
L 10.59375 37.203125 
z
M 10.59375 25.484375 
L 73.1875 25.484375 
L 73.1875 17.1875 
L 10.59375 17.1875 
z
" id="DejaVuSans-3d"/>
       <path d="M 11.71875 12.984375 
L 28.328125 12.984375 
L 28.328125 60.109375 
L 11.28125 56.59375 
L 11.28125 69.390625 
L 28.21875 72.90625 
L 46.09375 72.90625 
L 46.09375 12.984375 
L 62.703125 12.984375 
L 62.703125 0 
L 11.71875 0 
z
" id="DejaVuSans-Bold-31"/>
      </defs>
      <g transform="translate(260.458951 208.812049)scale(0.12 -0.12)">
       <use transform="translate(0 0.684375)" xlink:href="#DejaVuSans-63"/>
       <use transform="translate(54.980469 0.684375)" xlink:href="#DejaVuSans-6f"/>
       <use transform="translate(116.162109 0.684375)" xlink:href="#DejaVuSans-6e"/>
       <use transform="translate(179.541016 0.684375)" xlink:href="#DejaVuSans-73"/>
       <use transform="translate(231.640625 0.684375)" xlink:href="#DejaVuSans-74"/>
       <use transform="translate(270.849609 0.684375)" xlink:href="#DejaVuSans-72"/>
       <use transform="translate(311.962891 0.684375)" xlink:href="#DejaVuSans-61"/>
       <use transform="translate(373.242188 0.684375)" xlink:href="#DejaVuSans-69"/>
       <use transform="translate(401.025391 0.684375)" xlink:href="#DejaVuSans-6e"/>
       <use transform="translate(464.404297 0.684375)" xlink:href="#DejaVuSans-74"/>
       <use transform="translate(503.613281 0.684375)" xlink:href="#DejaVuSans-20"/>
       <use transform="translate(535.400391 0.684375)" xlink:href="#DejaVuSans-6d"/>
       <use transform="translate(632.8125 0.684375)" xlink:href="#DejaVuSans-61"/>
       <use transform="translate(694.091797 0.684375)" xlink:href="#DejaVuSans-6e"/>
       <use transform="translate(757.470703 0.684375)" xlink:href="#DejaVuSans-69"/>
       <use transform="translate(785.253906 0.684375)" xlink:href="#DejaVuSans-66"/>
       <use transform="translate(820.458984 0.684375)" xlink:href="#DejaVuSans-6f"/>
       <use transform="translate(881.640625 0.684375)" xlink:href="#DejaVuSans-6c"/>
       <use transform="translate(909.423828 0.684375)" xlink:href="#DejaVuSans-64"/>
       <use transform="translate(972.900391 0.684375)" xlink:href="#DejaVuSans-20"/>
       <use transform="translate(1004.6875 0.684375)" xlink:href="#DejaVuSans-66"/>
       <use transform="translate(1039.892578 0.684375)" xlink:href="#DejaVuSans-6f"/>
       <use transform="translate(1101.074219 0.684375)" xlink:href="#DejaVuSans-72"/>
       <use transform="translate(1142.1875 0.684375)" xlink:href="#DejaVuSans-20"/>
       <use transform="translate(1173.974609 0.684375)" xlink:href="#DejaVuSans-Bold-43"/>
       <use transform="translate(1248.320312 38.965625)scale(0.7)" xlink:href="#DejaVuSans-Bold-54"/>
       <use transform="translate(1298.803711 0.684375)" xlink:href="#DejaVuSans-Bold-53"/>
       <use transform="translate(1370.825195 0.684375)" xlink:href="#DejaVuSans-Bold-43"/>
       <use transform="translate(1463.696289 0.684375)" xlink:href="#DejaVuSans-3d"/>
       <use transform="translate(1566.967773 0.684375)" xlink:href="#DejaVuSans-Bold-31"/>
      </g>
     </g>
    </g>
   </g>
   <defs>
    <clipPath id="pa188b9a0c1">
     <rect height="217.44" width="255.064909" x="93.867546" y="34.56"/>
    </clipPath>
   </defs>
  </g>
 </g>
</svg>
