<?xml version="1.0" encoding="utf-8" standalone="no"?>
<!DOCTYPE svg PUBLIC "-//W3C//DTD SVG 1.1//EN"
  "http://www.w3.org/Graphics/SVG/1.1/DTD/svg11.dtd">
<!-- Created with matplotlib (http://matplotlib.org/) -->
<svg height="288pt" version="1.1" viewBox="0 0 432 288" width="432pt" xmlns="http://www.w3.org/2000/svg" xmlns:xlink="http://www.w3.org/1999/xlink">
 <defs>
  <style type="text/css">
*{stroke-linecap:butt;stroke-linejoin:round;}
  </style>
 </defs>
 <g id="figure_1">
  <g id="patch_1">
   <path d="M 0 288 
L 432 288 
L 432 0 
L 0 0 
z
" style="fill:#ffffff;"/>
  </g>
  <g id="axes_1">
   <g id="PolyCollection_1">
    <path clip-path="url(#pbc04455163)" d="M 69.218182 242.116364 
L 69.218182 242.116364 
L 69.52285 242.116364 
L 69.827518 242.116364 
L 70.132187 242.116364 
L 70.436855 242.116364 
L 70.741523 242.116364 
L 71.046192 242.116364 
L 71.35086 242.116364 
L 71.655528 242.116364 
L 71.960197 242.116364 
L 72.264865 242.116364 
L 72.569533 242.116364 
L 72.874201 242.116364 
L 73.17887 242.116364 
L 73.483538 242.116364 
L 73.788206 242.116364 
L 74.092875 242.116364 
L 74.397543 242.116364 
L 74.702211 242.116364 
L 75.00688 242.116364 
L 75.311548 242.116364 
L 75.616216 242.116364 
L 75.920885 242.116364 
L 76.225553 242.116364 
L 76.530221 242.116364 
L 76.834889 242.116364 
L 77.139558 242.116364 
L 77.444226 242.116364 
L 77.748894 242.116364 
L 78.053563 242.116364 
L 78.358231 242.116364 
L 78.662899 242.116364 
L 78.967568 242.116364 
L 79.272236 242.116364 
L 79.576904 242.116364 
L 79.881572 242.116364 
L 80.186241 242.116364 
L 80.490909 242.116364 
L 80.795577 242.116364 
L 81.100246 242.116364 
L 81.404914 242.116364 
L 81.709582 242.116364 
L 82.014251 242.116364 
L 82.318919 242.116364 
L 82.623587 242.116364 
L 82.928256 242.116364 
L 83.232924 242.116364 
L 83.537592 242.116364 
L 83.84226 242.116364 
L 84.146929 242.116364 
L 84.451597 242.116364 
L 84.756265 242.116364 
L 85.060934 242.116364 
L 85.365602 242.116364 
L 85.67027 242.116364 
L 85.974939 242.116364 
L 86.279607 242.116364 
L 86.584275 242.116364 
L 86.888943 242.116364 
L 87.193612 242.116364 
L 87.49828 242.116364 
L 87.802948 242.116364 
L 88.107617 242.116364 
L 88.412285 242.116364 
L 88.716953 242.116364 
L 89.021622 242.116364 
L 89.32629 242.116364 
L 89.630958 242.116364 
L 89.935627 242.116364 
L 90.240295 242.116364 
L 90.544963 242.116364 
L 90.849631 242.116364 
L 91.1543 242.116364 
L 91.458968 242.116364 
L 91.763636 242.116364 
L 92.068305 242.116364 
L 92.372973 242.116364 
L 92.677641 242.116364 
L 92.98231 242.116364 
L 93.286978 242.116364 
L 93.591646 242.116364 
L 93.896314 242.116364 
L 94.200983 242.116364 
L 94.505651 242.116364 
L 94.810319 242.116364 
L 95.114988 242.116364 
L 95.419656 242.116364 
L 95.724324 242.116364 
L 96.028993 242.116364 
L 96.333661 242.116364 
L 96.638329 242.116364 
L 96.942998 242.116364 
L 97.247666 242.116364 
L 97.552334 242.116364 
L 97.857002 242.116364 
L 98.161671 242.116364 
L 98.466339 242.116364 
L 98.771007 242.116364 
L 99.075676 242.116364 
L 99.380344 242.116364 
L 99.685012 242.116364 
L 99.989681 242.116364 
L 100.294349 242.116364 
L 100.599017 242.116364 
L 100.903686 242.116364 
L 101.208354 242.116364 
L 101.513022 242.116364 
L 101.81769 242.116364 
L 102.122359 242.116364 
L 102.427027 242.116364 
L 102.731695 242.116364 
L 103.036364 242.116364 
L 103.341032 242.116364 
L 103.6457 242.116364 
L 103.950369 242.116364 
L 104.255037 242.116364 
L 104.559705 242.116364 
L 104.864373 242.116364 
L 105.169042 242.116364 
L 105.47371 242.116364 
L 105.778378 242.116364 
L 106.083047 242.116364 
L 106.387715 242.116364 
L 106.692383 242.116364 
L 106.997052 242.116364 
L 107.30172 242.116364 
L 107.606388 242.116364 
L 107.911057 242.116364 
L 108.215725 242.116364 
L 108.520393 242.116364 
L 108.825061 242.116364 
L 109.12973 242.116364 
L 109.434398 242.116364 
L 109.739066 242.116364 
L 110.043735 242.116364 
L 110.348403 242.116364 
L 110.653071 242.116364 
L 110.95774 242.116364 
L 111.262408 242.116364 
L 111.567076 242.116364 
L 111.871744 242.116364 
L 112.176413 242.116364 
L 112.481081 242.116364 
L 112.785749 242.116364 
L 113.090418 242.116364 
L 113.395086 242.116364 
L 113.699754 242.116364 
L 114.004423 242.116364 
L 114.309091 242.116364 
L 114.613759 242.116364 
L 114.918428 242.116364 
L 115.223096 242.116364 
L 115.527764 242.116364 
L 115.832432 242.116364 
L 116.137101 242.116364 
L 116.441769 242.116364 
L 116.746437 242.116364 
L 117.051106 242.116364 
L 117.355774 242.116364 
L 117.660442 242.116364 
L 117.965111 242.116364 
L 118.269779 242.116364 
L 118.574447 242.116364 
L 118.879115 242.116364 
L 119.183784 242.116364 
L 119.488452 242.116364 
L 119.79312 242.116364 
L 120.097789 242.116364 
L 120.402457 242.116364 
L 120.707125 242.116364 
L 121.011794 242.116364 
L 121.316462 242.116364 
L 121.62113 242.116364 
L 121.925799 242.116364 
L 122.230467 242.116364 
L 122.535135 242.116364 
L 122.839803 242.116364 
L 123.144472 242.116364 
L 123.44914 242.116364 
L 123.753808 242.116364 
L 124.058477 242.116364 
L 124.363145 242.116364 
L 124.667813 242.116364 
L 124.972482 242.116364 
L 125.27715 242.116364 
L 125.581818 242.116364 
L 125.886486 242.116364 
L 126.191155 242.116364 
L 126.495823 242.116364 
L 126.800491 242.116364 
L 127.10516 242.116364 
L 127.409828 242.116364 
L 127.714496 242.116364 
L 128.019165 242.116364 
L 128.323833 242.116364 
L 128.628501 242.116364 
L 128.93317 242.116364 
L 129.237838 242.116364 
L 129.542506 242.116364 
L 129.847174 242.116364 
L 130.151843 242.116364 
L 130.456511 242.116364 
L 130.761179 242.116364 
L 131.065848 242.116364 
L 131.370516 242.116364 
L 131.675184 242.116364 
L 131.979853 242.116364 
L 132.284521 242.116364 
L 132.589189 242.116364 
L 132.893857 242.116364 
L 133.198526 242.116364 
L 133.503194 242.116364 
L 133.807862 242.116364 
L 134.112531 242.116364 
L 134.417199 242.116364 
L 134.721867 242.116364 
L 135.026536 242.116364 
L 135.331204 242.116364 
L 135.635872 242.116364 
L 135.940541 242.116364 
L 136.245209 242.116364 
L 136.549877 242.116364 
L 136.854545 242.116364 
L 137.159214 242.116364 
L 137.463882 242.116364 
L 137.76855 242.116364 
L 138.073219 242.116364 
L 138.377887 242.116364 
L 138.682555 242.116364 
L 138.987224 242.116364 
L 139.291892 242.116364 
L 139.59656 242.116364 
L 139.901229 242.116364 
L 140.205897 242.116364 
L 140.510565 242.116364 
L 140.815233 242.116364 
L 141.119902 242.116364 
L 141.42457 242.116364 
L 141.729238 242.116364 
L 142.033907 242.116364 
L 142.338575 242.116364 
L 142.643243 242.116364 
L 142.947912 242.116364 
L 143.25258 242.116364 
L 143.557248 242.116364 
L 143.861916 242.116364 
L 144.166585 242.116364 
L 144.471253 242.116364 
L 144.775921 242.116364 
L 145.08059 242.116364 
L 145.385258 242.116364 
L 145.689926 242.116364 
L 145.994595 242.116364 
L 146.299263 242.116364 
L 146.603931 242.116364 
L 146.9086 242.116364 
L 147.213268 242.116364 
L 147.517936 242.116364 
L 147.822604 242.116364 
L 148.127273 242.116364 
L 148.431941 242.116364 
L 148.736609 242.116364 
L 149.041278 242.116364 
L 149.345946 242.116364 
L 149.650614 242.116364 
L 149.955283 242.116364 
L 150.259951 242.116364 
L 150.564619 242.116364 
L 150.869287 242.116364 
L 151.173956 242.116364 
L 151.478624 242.116364 
L 151.783292 242.116364 
L 152.087961 242.116364 
L 152.392629 242.116364 
L 152.697297 242.116364 
L 153.001966 242.116364 
L 153.306634 242.116364 
L 153.611302 242.116364 
L 153.915971 242.116364 
L 154.220639 242.116364 
L 154.525307 242.116364 
L 154.829975 242.116364 
L 155.134644 242.116364 
L 155.439312 242.116364 
L 155.74398 242.116364 
L 156.048649 242.116364 
L 156.353317 242.116364 
L 156.657985 242.116364 
L 156.962654 242.116364 
L 157.267322 242.116364 
L 157.57199 242.116364 
L 157.876658 242.116364 
L 158.181327 242.116364 
L 158.485995 242.116364 
L 158.790663 242.116364 
L 159.095332 242.116364 
L 159.4 242.116364 
L 159.704668 242.116364 
L 160.009337 242.116364 
L 160.314005 242.116364 
L 160.618673 242.116364 
L 160.923342 242.116364 
L 161.22801 242.116364 
L 161.532678 242.116364 
L 161.837346 242.116364 
L 162.142015 242.116364 
L 162.446683 242.116364 
L 162.751351 242.116364 
L 163.05602 242.116364 
L 163.360688 242.116364 
L 163.665356 242.116364 
L 163.970025 242.116364 
L 164.274693 242.116364 
L 164.579361 242.116364 
L 164.884029 242.116364 
L 165.188698 242.116364 
L 165.493366 242.116364 
L 165.798034 242.116364 
L 166.102703 242.116364 
L 166.407371 242.116364 
L 166.712039 242.116364 
L 167.016708 242.116364 
L 167.321376 242.116364 
L 167.626044 242.116364 
L 167.930713 242.116364 
L 168.235381 242.116364 
L 168.540049 242.116364 
L 168.844717 242.116364 
L 169.149386 242.116364 
L 169.454054 242.116364 
L 169.758722 242.116364 
L 170.063391 242.116364 
L 170.368059 242.116364 
L 170.672727 242.116364 
L 170.977396 242.116364 
L 171.282064 242.116364 
L 171.586732 242.116364 
L 171.8914 242.116364 
L 172.196069 242.116364 
L 172.500737 242.116364 
L 172.805405 242.116364 
L 173.110074 242.116364 
L 173.414742 242.116364 
L 173.71941 242.116364 
L 174.024079 242.116364 
L 174.328747 242.116364 
L 174.633415 242.116364 
L 174.938084 242.116364 
L 175.242752 242.116364 
L 175.54742 242.116364 
L 175.852088 242.116364 
L 176.156757 242.116364 
L 176.461425 242.116364 
L 176.766093 242.116364 
L 177.070762 242.116364 
L 177.37543 242.116364 
L 177.680098 242.116364 
L 177.984767 242.116364 
L 178.289435 242.116364 
L 178.594103 242.116364 
L 178.898771 242.116364 
L 179.20344 242.116364 
L 179.508108 242.116364 
L 179.812776 242.116364 
L 180.117445 242.116364 
L 180.422113 242.116364 
L 180.726781 242.116364 
L 181.03145 242.116364 
L 181.336118 242.116364 
L 181.640786 242.116364 
L 181.945455 242.116364 
L 182.250123 242.116364 
L 182.554791 242.116364 
L 182.859459 242.116364 
L 183.164128 242.116364 
L 183.468796 242.116364 
L 183.773464 242.116364 
L 184.078133 242.116364 
L 184.382801 242.116364 
L 184.687469 242.116364 
L 184.992138 242.116364 
L 185.296806 242.116364 
L 185.601474 242.116364 
L 185.906143 242.116364 
L 186.210811 242.116364 
L 186.515479 242.116364 
L 186.820147 242.116364 
L 187.124816 242.116364 
L 187.429484 242.116364 
L 187.734152 242.116364 
L 188.038821 242.116364 
L 188.343489 242.116364 
L 188.648157 242.116364 
L 188.952826 242.116364 
L 189.257494 242.116364 
L 189.562162 242.116364 
L 189.86683 242.116364 
L 190.171499 242.116364 
L 190.476167 242.116364 
L 190.780835 242.116364 
L 191.085504 242.116364 
L 191.390172 242.116364 
L 191.69484 242.116364 
L 191.999509 242.116364 
L 192.304177 242.116364 
L 192.608845 242.116364 
L 192.913514 242.116364 
L 193.218182 242.116364 
L 193.52285 242.116364 
L 193.827518 242.116364 
L 194.132187 242.116364 
L 194.436855 242.116364 
L 194.741523 242.116364 
L 195.046192 242.116364 
L 195.35086 242.116364 
L 195.655528 242.116364 
L 195.960197 242.116364 
L 196.264865 242.116364 
L 196.569533 242.116364 
L 196.874201 242.116364 
L 197.17887 242.116364 
L 197.483538 242.116364 
L 197.788206 242.116364 
L 198.092875 242.116364 
L 198.397543 242.116364 
L 198.702211 242.116364 
L 199.00688 242.116364 
L 199.311548 242.116364 
L 199.616216 242.116364 
L 199.920885 242.116364 
L 200.225553 242.116364 
L 200.530221 242.116364 
L 200.834889 242.116364 
L 201.139558 242.116364 
L 201.444226 242.116364 
L 201.748894 242.116364 
L 202.053563 242.116364 
L 202.358231 242.116364 
L 202.662899 242.116364 
L 202.967568 242.116364 
L 203.272236 242.116364 
L 203.576904 242.116364 
L 203.881572 242.116364 
L 204.186241 242.116364 
L 204.490909 242.116364 
L 204.795577 242.116364 
L 205.100246 242.116364 
L 205.404914 242.116364 
L 205.709582 242.116364 
L 206.014251 242.116364 
L 206.318919 242.116364 
L 206.623587 242.116364 
L 206.928256 242.116364 
L 207.232924 242.116364 
L 207.537592 242.116364 
L 207.84226 242.116364 
L 208.146929 242.116364 
L 208.451597 242.116364 
L 208.756265 242.116364 
L 209.060934 242.116364 
L 209.365602 242.116364 
L 209.67027 242.116364 
L 209.974939 242.116364 
L 210.279607 242.116364 
L 210.584275 242.116364 
L 210.888943 242.116364 
L 211.193612 242.116364 
L 211.49828 242.116364 
L 211.802948 242.116364 
L 212.107617 242.116364 
L 212.412285 242.116364 
L 212.716953 242.116364 
L 213.021622 242.116364 
L 213.32629 242.116364 
L 213.630958 242.116364 
L 213.935627 242.116364 
L 214.240295 242.116364 
L 214.544963 242.116364 
L 214.849631 242.116364 
L 215.1543 242.116364 
L 215.458968 242.116364 
L 215.763636 242.116364 
L 216.068305 242.116364 
L 216.372973 242.116364 
L 216.677641 242.116364 
L 216.98231 242.116364 
L 217.286978 242.116364 
L 217.591646 242.116364 
L 217.896314 242.116364 
L 218.200983 242.116364 
L 218.505651 242.116364 
L 218.810319 242.116364 
L 219.114988 242.116364 
L 219.419656 242.116364 
L 219.724324 242.116364 
L 220.028993 242.116364 
L 220.333661 242.116364 
L 220.638329 242.116364 
L 220.942998 242.116364 
L 221.247666 242.116364 
L 221.552334 242.116364 
L 221.857002 242.116364 
L 222.161671 242.116364 
L 222.466339 242.116364 
L 222.771007 242.116364 
L 223.075676 242.116364 
L 223.380344 242.116364 
L 223.685012 242.116364 
L 223.989681 242.116364 
L 224.294349 242.116364 
L 224.599017 242.116364 
L 224.903686 242.116364 
L 225.208354 242.116364 
L 225.513022 242.116364 
L 225.81769 242.116364 
L 226.122359 242.116364 
L 226.427027 242.116364 
L 226.731695 242.116364 
L 227.036364 242.116364 
L 227.341032 242.116364 
L 227.6457 242.116364 
L 227.950369 242.116364 
L 228.255037 242.116364 
L 228.559705 242.116364 
L 228.864373 242.116364 
L 229.169042 242.116364 
L 229.47371 242.116364 
L 229.778378 242.116364 
L 230.083047 242.116364 
L 230.387715 242.116364 
L 230.692383 242.116364 
L 230.997052 242.116364 
L 231.30172 242.116364 
L 231.606388 242.116364 
L 231.911057 242.116364 
L 232.215725 242.116364 
L 232.520393 242.116364 
L 232.825061 242.116364 
L 233.12973 242.116364 
L 233.434398 242.116364 
L 233.739066 242.116364 
L 234.043735 242.116364 
L 234.348403 242.116364 
L 234.653071 242.116364 
L 234.95774 242.116364 
L 235.262408 242.116364 
L 235.567076 242.116364 
L 235.871744 242.116364 
L 236.176413 242.116364 
L 236.481081 242.116364 
L 236.785749 242.116364 
L 237.090418 242.116364 
L 237.395086 242.116364 
L 237.699754 242.116364 
L 238.004423 242.116364 
L 238.309091 242.116364 
L 238.613759 242.116364 
L 238.918428 242.116364 
L 239.223096 242.116364 
L 239.527764 242.116364 
L 239.832432 242.116364 
L 240.137101 242.116364 
L 240.441769 242.116364 
L 240.746437 242.116364 
L 241.051106 242.116364 
L 241.355774 242.116364 
L 241.660442 242.116364 
L 241.965111 242.116364 
L 242.269779 242.116364 
L 242.574447 242.116364 
L 242.879115 242.116364 
L 243.183784 242.116364 
L 243.488452 242.116364 
L 243.79312 242.116364 
L 244.097789 242.116364 
L 244.402457 242.116364 
L 244.707125 242.116364 
L 245.011794 242.116364 
L 245.316462 242.116364 
L 245.62113 242.116364 
L 245.925799 242.116364 
L 246.230467 242.116364 
L 246.535135 242.116364 
L 246.839803 242.116364 
L 247.144472 242.116364 
L 247.44914 242.116364 
L 247.753808 242.116364 
L 248.058477 242.116364 
L 248.363145 242.116364 
L 248.667813 242.116364 
L 248.972482 242.116364 
L 249.27715 242.116364 
L 249.581818 242.116364 
L 249.886486 242.116364 
L 250.191155 242.116364 
L 250.495823 242.116364 
L 250.800491 242.116364 
L 251.10516 242.116364 
L 251.409828 242.116364 
L 251.714496 242.116364 
L 252.019165 242.116364 
L 252.323833 242.116364 
L 252.628501 242.116364 
L 252.93317 242.116364 
L 253.237838 242.116364 
L 253.542506 242.116364 
L 253.847174 242.116364 
L 254.151843 242.116364 
L 254.456511 242.116364 
L 254.761179 242.116364 
L 255.065848 242.116364 
L 255.370516 242.116364 
L 255.675184 242.116364 
L 255.979853 242.116364 
L 256.284521 242.116364 
L 256.589189 242.116364 
L 256.893857 242.116364 
L 257.198526 242.116364 
L 257.503194 242.116364 
L 257.807862 242.116364 
L 258.112531 242.116364 
L 258.417199 242.116364 
L 258.721867 242.116364 
L 259.026536 242.116364 
L 259.331204 242.116364 
L 259.635872 242.116364 
L 259.940541 242.116364 
L 260.245209 242.116364 
L 260.549877 242.116364 
L 260.854545 242.116364 
L 261.159214 242.116364 
L 261.463882 242.116364 
L 261.76855 242.116364 
L 262.073219 242.116364 
L 262.377887 242.116364 
L 262.682555 242.116364 
L 262.987224 242.116364 
L 263.291892 242.116364 
L 263.59656 242.116364 
L 263.901229 242.116364 
L 264.205897 242.116364 
L 264.510565 242.116364 
L 264.815233 242.116364 
L 265.119902 242.116364 
L 265.42457 242.116364 
L 265.729238 242.116364 
L 266.033907 242.116364 
L 266.338575 242.116364 
L 266.643243 242.116364 
L 266.947912 242.116364 
L 267.25258 242.116364 
L 267.557248 242.116364 
L 267.861916 242.116364 
L 268.166585 242.116364 
L 268.471253 242.116364 
L 268.775921 242.116364 
L 269.08059 242.116364 
L 269.385258 242.116364 
L 269.689926 242.116364 
L 269.994595 242.116364 
L 270.299263 242.116364 
L 270.603931 242.116364 
L 270.9086 242.116364 
L 271.213268 242.116364 
L 271.517936 242.116364 
L 271.822604 242.116364 
L 272.127273 242.116364 
L 272.431941 242.116364 
L 272.736609 242.116364 
L 273.041278 242.116364 
L 273.345946 242.116364 
L 273.650614 242.116364 
L 273.955283 242.116364 
L 274.259951 242.116364 
L 274.564619 242.116364 
L 274.869287 242.116364 
L 275.173956 242.116364 
L 275.478624 242.116364 
L 275.783292 242.116364 
L 276.087961 242.116364 
L 276.392629 242.116364 
L 276.697297 242.116364 
L 277.001966 242.116364 
L 277.306634 242.116364 
L 277.611302 242.116364 
L 277.915971 242.116364 
L 278.220639 242.116364 
L 278.525307 242.116364 
L 278.829975 242.116364 
L 279.134644 242.116364 
L 279.439312 242.116364 
L 279.74398 242.116364 
L 280.048649 242.116364 
L 280.353317 242.116364 
L 280.657985 242.116364 
L 280.962654 242.116364 
L 281.267322 242.116364 
L 281.57199 242.116364 
L 281.876658 242.116364 
L 282.181327 242.116364 
L 282.485995 242.116364 
L 282.790663 242.116364 
L 283.095332 242.116364 
L 283.4 242.116364 
L 283.704668 242.116364 
L 284.009337 242.116364 
L 284.314005 242.116364 
L 284.618673 242.116364 
L 284.923342 242.116364 
L 285.22801 242.116364 
L 285.532678 242.116364 
L 285.837346 242.116364 
L 286.142015 242.116364 
L 286.446683 242.116364 
L 286.751351 242.116364 
L 287.05602 242.116364 
L 287.360688 242.116364 
L 287.665356 242.116364 
L 287.970025 242.116364 
L 288.274693 242.116364 
L 288.579361 242.116364 
L 288.884029 242.116364 
L 289.188698 242.116364 
L 289.493366 242.116364 
L 289.798034 242.116364 
L 290.102703 242.116364 
L 290.407371 242.116364 
L 290.712039 242.116364 
L 291.016708 242.116364 
L 291.321376 242.116364 
L 291.626044 242.116364 
L 291.930713 242.116364 
L 292.235381 242.116364 
L 292.540049 242.116364 
L 292.844717 242.116364 
L 293.149386 242.116364 
L 293.454054 242.116364 
L 293.758722 242.116364 
L 294.063391 242.116364 
L 294.368059 242.116364 
L 294.672727 242.116364 
L 294.977396 242.116364 
L 295.282064 242.116364 
L 295.586732 242.116364 
L 295.8914 242.116364 
L 296.196069 242.116364 
L 296.500737 242.116364 
L 296.805405 242.116364 
L 297.110074 242.116364 
L 297.414742 242.116364 
L 297.71941 242.116364 
L 298.024079 242.116364 
L 298.328747 242.116364 
L 298.633415 242.116364 
L 298.938084 242.116364 
L 299.242752 242.116364 
L 299.54742 242.116364 
L 299.852088 242.116364 
L 300.156757 242.116364 
L 300.461425 242.116364 
L 300.766093 242.116364 
L 301.070762 242.116364 
L 301.37543 242.116364 
L 301.680098 242.116364 
L 301.984767 242.116364 
L 302.289435 242.116364 
L 302.594103 242.116364 
L 302.898771 242.116364 
L 303.20344 242.116364 
L 303.508108 242.116364 
L 303.812776 242.116364 
L 304.117445 242.116364 
L 304.422113 242.116364 
L 304.726781 242.116364 
L 305.03145 242.116364 
L 305.336118 242.116364 
L 305.640786 242.116364 
L 305.945455 242.116364 
L 306.250123 242.116364 
L 306.554791 242.116364 
L 306.859459 242.116364 
L 307.164128 242.116364 
L 307.468796 242.116364 
L 307.773464 242.116364 
L 308.078133 242.116364 
L 308.382801 242.116364 
L 308.687469 242.116364 
L 308.992138 242.116364 
L 309.296806 242.116364 
L 309.601474 242.116364 
L 309.906143 242.116364 
L 310.210811 242.116364 
L 310.515479 242.116364 
L 310.820147 242.116364 
L 311.124816 242.116364 
L 311.429484 242.116364 
L 311.734152 242.116364 
L 312.038821 242.116364 
L 312.343489 242.116364 
L 312.648157 242.116364 
L 312.952826 242.116364 
L 313.257494 242.116364 
L 313.562162 242.116364 
L 313.86683 242.116364 
L 314.171499 242.116364 
L 314.476167 242.116364 
L 314.780835 242.116364 
L 315.085504 242.116364 
L 315.390172 242.116364 
L 315.69484 242.116364 
L 315.999509 242.116364 
L 316.304177 242.116364 
L 316.608845 242.116364 
L 316.913514 242.116364 
L 317.218182 242.116364 
L 317.52285 242.116364 
L 317.827518 242.116364 
L 318.132187 242.116364 
L 318.436855 242.116364 
L 318.741523 242.116364 
L 319.046192 242.116364 
L 319.35086 242.116364 
L 319.655528 242.116364 
L 319.960197 242.116364 
L 320.264865 242.116364 
L 320.569533 242.116364 
L 320.874201 242.116364 
L 321.17887 242.116364 
L 321.483538 242.116364 
L 321.788206 242.116364 
L 322.092875 242.116364 
L 322.397543 242.116364 
L 322.702211 242.116364 
L 323.00688 242.116364 
L 323.311548 242.116364 
L 323.616216 242.116364 
L 323.920885 242.116364 
L 324.225553 242.116364 
L 324.530221 242.116364 
L 324.834889 242.116364 
L 325.139558 242.116364 
L 325.444226 242.116364 
L 325.748894 242.116364 
L 326.053563 242.116364 
L 326.358231 242.116364 
L 326.662899 242.116364 
L 326.967568 242.116364 
L 327.272236 242.116364 
L 327.576904 242.116364 
L 327.881572 242.116364 
L 328.186241 242.116364 
L 328.490909 242.116364 
L 328.795577 242.116364 
L 329.100246 242.116364 
L 329.404914 242.116364 
L 329.709582 242.116364 
L 330.014251 242.116364 
L 330.318919 242.116364 
L 330.623587 242.116364 
L 330.928256 242.116364 
L 331.232924 242.116364 
L 331.537592 242.116364 
L 331.84226 242.116364 
L 332.146929 242.116364 
L 332.451597 242.116364 
L 332.756265 242.116364 
L 333.060934 242.116364 
L 333.365602 242.116364 
L 333.67027 242.116364 
L 333.974939 242.116364 
L 334.279607 242.116364 
L 334.584275 242.116364 
L 334.888943 242.116364 
L 335.193612 242.116364 
L 335.49828 242.116364 
L 335.802948 242.116364 
L 336.107617 242.116364 
L 336.412285 242.116364 
L 336.716953 242.116364 
L 337.021622 242.116364 
L 337.32629 242.116364 
L 337.630958 242.116364 
L 337.935627 242.116364 
L 338.240295 242.116364 
L 338.544963 242.116364 
L 338.849631 242.116364 
L 339.1543 242.116364 
L 339.458968 242.116364 
L 339.763636 242.116364 
L 340.068305 242.116364 
L 340.372973 242.116364 
L 340.677641 242.116364 
L 340.98231 242.116364 
L 341.286978 242.116364 
L 341.591646 242.116364 
L 341.896314 242.116364 
L 342.200983 242.116364 
L 342.505651 242.116364 
L 342.810319 242.116364 
L 343.114988 242.116364 
L 343.419656 242.116364 
L 343.724324 242.116364 
L 344.028993 242.116364 
L 344.333661 242.116364 
L 344.638329 242.116364 
L 344.942998 242.116364 
L 345.247666 242.116364 
L 345.552334 242.116364 
L 345.857002 242.116364 
L 346.161671 242.116364 
L 346.466339 242.116364 
L 346.771007 242.116364 
L 347.075676 242.116364 
L 347.380344 242.116364 
L 347.685012 242.116364 
L 347.989681 242.116364 
L 348.294349 242.116364 
L 348.599017 242.116364 
L 348.903686 242.116364 
L 349.208354 242.116364 
L 349.513022 242.116364 
L 349.81769 242.116364 
L 350.122359 242.116364 
L 350.427027 242.116364 
L 350.731695 242.116364 
L 351.036364 242.116364 
L 351.341032 242.116364 
L 351.6457 242.116364 
L 351.950369 242.116364 
L 352.255037 242.116364 
L 352.559705 242.116364 
L 352.864373 242.116364 
L 353.169042 242.116364 
L 353.47371 242.116364 
L 353.778378 242.116364 
L 354.083047 242.116364 
L 354.387715 242.116364 
L 354.692383 242.116364 
L 354.997052 242.116364 
L 355.30172 242.116364 
L 355.606388 242.116364 
L 355.911057 242.116364 
L 356.215725 242.116364 
L 356.520393 242.116364 
L 356.825061 242.116364 
L 357.12973 242.116364 
L 357.434398 242.116364 
L 357.739066 242.116364 
L 358.043735 242.116364 
L 358.348403 242.116364 
L 358.653071 242.116364 
L 358.95774 242.116364 
L 359.262408 242.116364 
L 359.567076 242.116364 
L 359.871744 242.116364 
L 360.176413 242.116364 
L 360.481081 242.116364 
L 360.785749 242.116364 
L 361.090418 242.116364 
L 361.395086 242.116364 
L 361.699754 242.116364 
L 362.004423 242.116364 
L 362.309091 242.116364 
L 362.613759 242.116364 
L 362.918428 242.116364 
L 363.223096 242.116364 
L 363.527764 242.116364 
L 363.832432 242.116364 
L 364.137101 242.116364 
L 364.441769 242.116364 
L 364.746437 242.116364 
L 365.051106 242.116364 
L 365.355774 242.116364 
L 365.660442 242.116364 
L 365.965111 242.116364 
L 366.269779 242.116364 
L 366.574447 242.116364 
L 366.879115 242.116364 
L 367.183784 242.116364 
L 367.488452 242.116364 
L 367.79312 242.116364 
L 368.097789 242.116364 
L 368.402457 242.116364 
L 368.707125 242.116364 
L 369.011794 242.116364 
L 369.316462 242.116364 
L 369.62113 242.116364 
L 369.925799 242.116364 
L 370.230467 242.116364 
L 370.535135 242.116364 
L 370.839803 242.116364 
L 371.144472 242.116364 
L 371.44914 242.116364 
L 371.753808 242.116364 
L 372.058477 242.116364 
L 372.363145 242.116364 
L 372.667813 242.116364 
L 372.972482 242.116364 
L 373.27715 242.116364 
L 373.581818 242.116364 
L 373.581818 242.116364 
L 373.581818 242.116364 
L 373.27715 242.116364 
L 372.972482 242.116364 
L 372.667813 242.116364 
L 372.363145 242.116364 
L 372.058477 242.116364 
L 371.753808 242.116364 
L 371.44914 242.116364 
L 371.144472 242.116364 
L 370.839803 242.116364 
L 370.535135 242.116364 
L 370.230467 242.116364 
L 369.925799 242.116364 
L 369.62113 242.116364 
L 369.316462 242.116364 
L 369.011794 242.116364 
L 368.707125 242.116364 
L 368.402457 242.116364 
L 368.097789 242.116364 
L 367.79312 242.116364 
L 367.488452 242.116364 
L 367.183784 242.116364 
L 366.879115 242.116364 
L 366.574447 242.116364 
L 366.269779 242.116364 
L 365.965111 242.116364 
L 365.660442 242.116364 
L 365.355774 242.116364 
L 365.051106 242.116364 
L 364.746437 242.116364 
L 364.441769 242.116364 
L 364.137101 242.116364 
L 363.832432 242.116364 
L 363.527764 242.116364 
L 363.223096 242.116364 
L 362.918428 242.116364 
L 362.613759 242.116364 
L 362.309091 242.116364 
L 362.004423 242.116364 
L 361.699754 242.116364 
L 361.395086 242.116364 
L 361.090418 242.116364 
L 360.785749 242.116364 
L 360.481081 242.116364 
L 360.176413 242.116364 
L 359.871744 242.116364 
L 359.567076 242.116364 
L 359.262408 242.116364 
L 358.95774 242.116364 
L 358.653071 242.116364 
L 358.348403 242.116364 
L 358.043735 242.116364 
L 357.739066 242.116364 
L 357.434398 242.116364 
L 357.12973 242.116364 
L 356.825061 242.116364 
L 356.520393 242.116364 
L 356.215725 242.116364 
L 355.911057 242.116364 
L 355.606388 242.116364 
L 355.30172 242.116364 
L 354.997052 242.116364 
L 354.692383 242.116364 
L 354.387715 242.116364 
L 354.083047 242.116364 
L 353.778378 242.116364 
L 353.47371 242.116364 
L 353.169042 242.116364 
L 352.864373 242.116364 
L 352.559705 242.116364 
L 352.255037 242.116364 
L 351.950369 242.116364 
L 351.6457 242.116364 
L 351.341032 242.116364 
L 351.036364 242.116364 
L 350.731695 242.116364 
L 350.427027 242.116364 
L 350.122359 242.116364 
L 349.81769 242.116364 
L 349.513022 242.116364 
L 349.208354 242.116364 
L 348.903686 242.116364 
L 348.599017 242.116364 
L 348.294349 242.116364 
L 347.989681 242.116364 
L 347.685012 242.116364 
L 347.380344 242.116364 
L 347.075676 242.116364 
L 346.771007 242.116364 
L 346.466339 242.116364 
L 346.161671 242.116364 
L 345.857002 242.116364 
L 345.552334 242.116364 
L 345.247666 242.116364 
L 344.942998 242.116364 
L 344.638329 242.116364 
L 344.333661 242.116364 
L 344.028993 242.116364 
L 343.724324 242.116364 
L 343.419656 242.116364 
L 343.114988 242.116364 
L 342.810319 242.116364 
L 342.505651 242.116364 
L 342.200983 242.116364 
L 341.896314 242.116364 
L 341.591646 242.116364 
L 341.286978 242.116364 
L 340.98231 242.116364 
L 340.677641 242.116364 
L 340.372973 242.116364 
L 340.068305 242.116364 
L 339.763636 242.116364 
L 339.458968 242.116364 
L 339.1543 242.116364 
L 338.849631 242.116364 
L 338.544963 242.116364 
L 338.240295 242.116364 
L 337.935627 242.116364 
L 337.630958 242.116364 
L 337.32629 242.116364 
L 337.021622 242.116364 
L 336.716953 242.116364 
L 336.412285 242.116364 
L 336.107617 242.116364 
L 335.802948 242.116364 
L 335.49828 242.116364 
L 335.193612 242.116364 
L 334.888943 242.116364 
L 334.584275 242.116364 
L 334.279607 242.116364 
L 333.974939 242.116364 
L 333.67027 242.116364 
L 333.365602 242.116364 
L 333.060934 242.116364 
L 332.756265 242.116364 
L 332.451597 242.116364 
L 332.146929 242.116364 
L 331.84226 242.116364 
L 331.537592 242.116364 
L 331.232924 242.116364 
L 330.928256 242.116364 
L 330.623587 242.116364 
L 330.318919 242.116364 
L 330.014251 242.116364 
L 329.709582 242.116364 
L 329.404914 242.116364 
L 329.100246 242.116364 
L 328.795577 242.116364 
L 328.490909 242.116364 
L 328.186241 242.116364 
L 327.881572 242.116364 
L 327.576904 242.116363 
L 327.272236 242.116363 
L 326.967568 242.116363 
L 326.662899 242.116363 
L 326.358231 242.116363 
L 326.053563 242.116363 
L 325.748894 242.116363 
L 325.444226 242.116363 
L 325.139558 242.116363 
L 324.834889 242.116363 
L 324.530221 242.116363 
L 324.225553 242.116363 
L 323.920885 242.116363 
L 323.616216 242.116363 
L 323.311548 242.116363 
L 323.00688 242.116363 
L 322.702211 242.116363 
L 322.397543 242.116363 
L 322.092875 242.116363 
L 321.788206 242.116363 
L 321.483538 242.116362 
L 321.17887 242.116362 
L 320.874201 242.116362 
L 320.569533 242.116362 
L 320.264865 242.116362 
L 319.960197 242.116362 
L 319.655528 242.116361 
L 319.35086 242.116361 
L 319.046192 242.116361 
L 318.741523 242.116361 
L 318.436855 242.11636 
L 318.132187 242.11636 
L 317.827518 242.116359 
L 317.52285 242.116359 
L 317.218182 242.116358 
L 316.913514 242.116358 
L 316.608845 242.116357 
L 316.304177 242.116357 
L 315.999509 242.116356 
L 315.69484 242.116355 
L 315.390172 242.116354 
L 315.085504 242.116353 
L 314.780835 242.116352 
L 314.476167 242.116351 
L 314.171499 242.11635 
L 313.86683 242.116348 
L 313.562162 242.116347 
L 313.257494 242.116345 
L 312.952826 242.116343 
L 312.648157 242.116341 
L 312.343489 242.116339 
L 312.038821 242.116336 
L 311.734152 242.116333 
L 311.429484 242.11633 
L 311.124816 242.116327 
L 310.820147 242.116324 
L 310.515479 242.11632 
L 310.210811 242.116315 
L 309.906143 242.116311 
L 309.601474 242.116305 
L 309.296806 242.1163 
L 308.992138 242.116293 
L 308.687469 242.116287 
L 308.382801 242.116279 
L 308.078133 242.116271 
L 307.773464 242.116262 
L 307.468796 242.116253 
L 307.164128 242.116242 
L 306.859459 242.116231 
L 306.554791 242.116218 
L 306.250123 242.116205 
L 305.945455 242.11619 
L 305.640786 242.116174 
L 305.336118 242.116156 
L 305.03145 242.116137 
L 304.726781 242.116117 
L 304.422113 242.116094 
L 304.117445 242.116069 
L 303.812776 242.116043 
L 303.508108 242.116014 
L 303.20344 242.115982 
L 302.898771 242.115948 
L 302.594103 242.115911 
L 302.289435 242.11587 
L 301.984767 242.115827 
L 301.680098 242.115779 
L 301.37543 242.115728 
L 301.070762 242.115672 
L 300.766093 242.115612 
L 300.461425 242.115546 
L 300.156757 242.115475 
L 299.852088 242.115399 
L 299.54742 242.115316 
L 299.242752 242.115226 
L 298.938084 242.115129 
L 298.633415 242.115025 
L 298.328747 242.114912 
L 298.024079 242.114789 
L 297.71941 242.114658 
L 297.414742 242.114515 
L 297.110074 242.114361 
L 296.805405 242.114196 
L 296.500737 242.114017 
L 296.196069 242.113824 
L 295.8914 242.113617 
L 295.586732 242.113393 
L 295.282064 242.113153 
L 294.977396 242.112894 
L 294.672727 242.112615 
L 294.368059 242.112315 
L 294.063391 242.111993 
L 293.758722 242.111646 
L 293.454054 242.111274 
L 293.149386 242.110873 
L 292.844717 242.110444 
L 292.540049 242.109982 
L 292.235381 242.109488 
L 291.930713 242.108956 
L 291.626044 242.108387 
L 291.321376 242.107777 
L 291.016708 242.107122 
L 290.712039 242.106421 
L 290.407371 242.105671 
L 290.102703 242.104867 
L 289.798034 242.104007 
L 289.493366 242.103087 
L 289.188698 242.102103 
L 288.884029 242.101051 
L 288.579361 242.099926 
L 288.274693 242.098725 
L 287.970025 242.097442 
L 287.665356 242.096072 
L 287.360688 242.09461 
L 287.05602 242.09305 
L 286.751351 242.091386 
L 286.446683 242.089612 
L 286.142015 242.087721 
L 285.837346 242.085706 
L 285.532678 242.08356 
L 285.22801 242.081275 
L 284.923342 242.078843 
L 284.618673 242.076255 
L 284.314005 242.073503 
L 284.009337 242.070576 
L 283.704668 242.067466 
L 283.4 242.06416 
L 283.095332 242.060649 
L 282.790663 242.056921 
L 282.485995 242.052964 
L 282.181327 242.048765 
L 281.876658 242.044311 
L 281.57199 242.039589 
L 281.267322 242.034583 
L 280.962654 242.029278 
L 280.657985 242.023659 
L 280.353317 242.017709 
L 280.048649 242.011411 
L 279.74398 242.004747 
L 279.439312 241.997698 
L 279.134644 241.990244 
L 278.829975 241.982364 
L 278.525307 241.974039 
L 278.220639 241.965244 
L 277.915971 241.955957 
L 277.611302 241.946154 
L 277.306634 241.93581 
L 277.001966 241.924898 
L 276.697297 241.913393 
L 276.392629 241.901264 
L 276.087961 241.888485 
L 275.783292 241.875023 
L 275.478624 241.860848 
L 275.173956 241.845927 
L 274.869287 241.830227 
L 274.564619 241.813712 
L 274.259951 241.796347 
L 273.955283 241.778094 
L 273.650614 241.758914 
L 273.345946 241.738768 
L 273.041278 241.717614 
L 272.736609 241.69541 
L 272.431941 241.672113 
L 272.127273 241.647676 
L 271.822604 241.622054 
L 271.517936 241.595198 
L 271.213268 241.567059 
L 270.9086 241.537586 
L 270.603931 241.506728 
L 270.299263 241.47443 
L 269.994595 241.440638 
L 269.689926 241.405294 
L 269.385258 241.368343 
L 269.08059 241.329723 
L 268.775921 241.289374 
L 268.471253 241.247235 
L 268.166585 241.203242 
L 267.861916 241.157329 
L 267.557248 241.10943 
L 267.25258 241.059478 
L 266.947912 241.007403 
L 266.643243 240.953136 
L 266.338575 240.896605 
L 266.033907 240.837736 
L 265.729238 240.776456 
L 265.42457 240.712689 
L 265.119902 240.646358 
L 264.815233 240.577387 
L 264.510565 240.505696 
L 264.205897 240.431206 
L 263.901229 240.353836 
L 263.59656 240.273505 
L 263.291892 240.19013 
L 262.987224 240.103629 
L 262.682555 240.013918 
L 262.377887 239.920911 
L 262.073219 239.824526 
L 261.76855 239.724676 
L 261.463882 239.621276 
L 261.159214 239.51424 
L 260.854545 239.403483 
L 260.549877 239.288918 
L 260.245209 239.170459 
L 259.940541 239.048022 
L 259.635872 238.921521 
L 259.331204 238.79087 
L 259.026536 238.655987 
L 258.721867 238.516786 
L 258.417199 238.373187 
L 258.112531 238.225107 
L 257.807862 238.072466 
L 257.503194 237.915184 
L 257.198526 237.753184 
L 256.893857 237.586391 
L 256.589189 237.414729 
L 256.284521 237.238126 
L 255.979853 237.056512 
L 255.675184 236.86982 
L 255.370516 236.677983 
L 255.065848 236.480939 
L 254.761179 236.278628 
L 254.456511 236.070993 
L 254.151843 235.857979 
L 253.847174 235.639537 
L 253.542506 235.41562 
L 253.237838 235.186183 
L 252.93317 234.951188 
L 252.628501 234.7106 
L 252.323833 234.464388 
L 252.019165 234.212524 
L 251.714496 233.954988 
L 251.409828 233.691762 
L 251.10516 233.422834 
L 250.800491 233.148198 
L 250.495823 232.867851 
L 250.191155 232.581799 
L 249.886486 232.29005 
L 249.581818 231.99262 
L 249.27715 231.689532 
L 248.972482 231.380812 
L 248.667813 231.066496 
L 248.363145 230.746623 
L 248.058477 230.421241 
L 247.753808 230.090403 
L 247.44914 229.754171 
L 247.144472 229.412613 
L 246.839803 229.065803 
L 246.535135 228.713823 
L 246.230467 228.356762 
L 245.925799 227.994718 
L 245.62113 227.627793 
L 245.316462 227.256101 
L 245.011794 226.879759 
L 244.707125 226.498895 
L 244.402457 226.113643 
L 244.097789 225.724143 
L 243.79312 225.330547 
L 243.488452 224.933011 
L 243.183784 224.531699 
L 242.879115 224.126783 
L 242.574447 223.718444 
L 242.269779 223.306868 
L 241.965111 222.89225 
L 241.660442 222.474791 
L 241.355774 222.054701 
L 241.051106 221.632195 
L 240.746437 221.207496 
L 240.441769 220.780834 
L 240.137101 220.352446 
L 239.832432 219.922573 
L 239.527764 219.491465 
L 239.223096 219.059377 
L 238.918428 218.62657 
L 238.613759 218.193311 
L 238.309091 217.759871 
L 238.004423 217.326529 
L 237.699754 216.893565 
L 237.395086 216.461266 
L 237.090418 216.029925 
L 236.785749 215.599834 
L 236.481081 215.171294 
L 236.176413 214.744606 
L 235.871744 214.320075 
L 235.567076 213.898009 
L 235.262408 213.478718 
L 234.95774 213.062515 
L 234.653071 212.649712 
L 234.348403 212.240625 
L 234.043735 211.83557 
L 233.739066 211.434862 
L 233.434398 211.038818 
L 233.12973 210.647753 
L 232.825061 210.261983 
L 232.520393 209.881821 
L 232.215725 209.507579 
L 231.911057 209.139568 
L 231.606388 208.778095 
L 231.30172 208.423465 
L 230.997052 208.075979 
L 230.692383 207.735935 
L 230.387715 207.403626 
L 230.083047 207.079341 
L 229.778378 206.763364 
L 229.47371 206.455974 
L 229.169042 206.157443 
L 228.864373 205.868037 
L 228.559705 205.588016 
L 228.255037 205.317633 
L 227.950369 205.057133 
L 227.6457 204.806754 
L 227.341032 204.566726 
L 227.036364 204.337268 
L 226.731695 204.118595 
L 226.427027 203.910907 
L 226.122359 203.7144 
L 225.81769 203.529256 
L 225.513022 203.35565 
L 225.208354 203.193746 
L 224.903686 203.043695 
L 224.599017 202.90564 
L 224.294349 202.779713 
L 223.989681 202.666032 
L 223.685012 202.564707 
L 223.380344 202.475835 
L 223.075676 202.399499 
L 222.771007 202.335774 
L 222.466339 202.28472 
L 222.161671 202.246386 
L 221.857002 202.22081 
L 221.552334 202.208016 
L 221.247666 202.208016 
L 220.942998 202.22081 
L 220.638329 202.246386 
L 220.333661 202.28472 
L 220.028993 202.335774 
L 219.724324 202.399499 
L 219.419656 202.475835 
L 219.114988 202.564707 
L 218.810319 202.666032 
L 218.505651 202.779713 
L 218.200983 202.90564 
L 217.896314 203.043695 
L 217.591646 203.193746 
L 217.286978 203.35565 
L 216.98231 203.529256 
L 216.677641 203.7144 
L 216.372973 203.910907 
L 216.068305 204.118595 
L 215.763636 204.337268 
L 215.458968 204.566726 
L 215.1543 204.806754 
L 214.849631 205.057133 
L 214.544963 205.317633 
L 214.240295 205.588016 
L 213.935627 205.868037 
L 213.630958 206.157443 
L 213.32629 206.455974 
L 213.021622 206.763364 
L 212.716953 207.079341 
L 212.412285 207.403626 
L 212.107617 207.735935 
L 211.802948 208.075979 
L 211.49828 208.423465 
L 211.193612 208.778095 
L 210.888943 209.139568 
L 210.584275 209.507579 
L 210.279607 209.881821 
L 209.974939 210.261983 
L 209.67027 210.647753 
L 209.365602 211.038818 
L 209.060934 211.434862 
L 208.756265 211.83557 
L 208.451597 212.240625 
L 208.146929 212.649712 
L 207.84226 213.062515 
L 207.537592 213.478718 
L 207.232924 213.898009 
L 206.928256 214.320075 
L 206.623587 214.744606 
L 206.318919 215.171294 
L 206.014251 215.599834 
L 205.709582 216.029925 
L 205.404914 216.461266 
L 205.100246 216.893565 
L 204.795577 217.326529 
L 204.490909 217.759871 
L 204.186241 218.193311 
L 203.881572 218.62657 
L 203.576904 219.059377 
L 203.272236 219.491465 
L 202.967568 219.922573 
L 202.662899 220.352446 
L 202.358231 220.780834 
L 202.053563 221.207496 
L 201.748894 221.632195 
L 201.444226 222.054701 
L 201.139558 222.474791 
L 200.834889 222.89225 
L 200.530221 223.306868 
L 200.225553 223.718444 
L 199.920885 224.126783 
L 199.616216 224.531699 
L 199.311548 224.933011 
L 199.00688 225.330547 
L 198.702211 225.724143 
L 198.397543 226.113643 
L 198.092875 226.498895 
L 197.788206 226.879759 
L 197.483538 227.256101 
L 197.17887 227.627793 
L 196.874201 227.994718 
L 196.569533 228.356762 
L 196.264865 228.713823 
L 195.960197 229.065803 
L 195.655528 229.412613 
L 195.35086 229.754171 
L 195.046192 230.090403 
L 194.741523 230.421241 
L 194.436855 230.746623 
L 194.132187 231.066496 
L 193.827518 231.380812 
L 193.52285 231.689532 
L 193.218182 231.99262 
L 192.913514 232.29005 
L 192.608845 232.581799 
L 192.304177 232.867851 
L 191.999509 233.148198 
L 191.69484 233.422834 
L 191.390172 233.691762 
L 191.085504 233.954988 
L 190.780835 234.212524 
L 190.476167 234.464388 
L 190.171499 234.7106 
L 189.86683 234.951188 
L 189.562162 235.186183 
L 189.257494 235.41562 
L 188.952826 235.639537 
L 188.648157 235.857979 
L 188.343489 236.070993 
L 188.038821 236.278628 
L 187.734152 236.480939 
L 187.429484 236.677983 
L 187.124816 236.86982 
L 186.820147 237.056512 
L 186.515479 237.238126 
L 186.210811 237.414729 
L 185.906143 237.586391 
L 185.601474 237.753184 
L 185.296806 237.915184 
L 184.992138 238.072466 
L 184.687469 238.225107 
L 184.382801 238.373187 
L 184.078133 238.516786 
L 183.773464 238.655987 
L 183.468796 238.79087 
L 183.164128 238.921521 
L 182.859459 239.048022 
L 182.554791 239.170459 
L 182.250123 239.288918 
L 181.945455 239.403483 
L 181.640786 239.51424 
L 181.336118 239.621276 
L 181.03145 239.724676 
L 180.726781 239.824526 
L 180.422113 239.920911 
L 180.117445 240.013918 
L 179.812776 240.103629 
L 179.508108 240.19013 
L 179.20344 240.273505 
L 178.898771 240.353836 
L 178.594103 240.431206 
L 178.289435 240.505696 
L 177.984767 240.577387 
L 177.680098 240.646358 
L 177.37543 240.712689 
L 177.070762 240.776456 
L 176.766093 240.837736 
L 176.461425 240.896605 
L 176.156757 240.953136 
L 175.852088 241.007403 
L 175.54742 241.059478 
L 175.242752 241.10943 
L 174.938084 241.157329 
L 174.633415 241.203242 
L 174.328747 241.247235 
L 174.024079 241.289374 
L 173.71941 241.329723 
L 173.414742 241.368343 
L 173.110074 241.405294 
L 172.805405 241.440638 
L 172.500737 241.47443 
L 172.196069 241.506728 
L 171.8914 241.537586 
L 171.586732 241.567059 
L 171.282064 241.595198 
L 170.977396 241.622054 
L 170.672727 241.647676 
L 170.368059 241.672113 
L 170.063391 241.69541 
L 169.758722 241.717614 
L 169.454054 241.738768 
L 169.149386 241.758914 
L 168.844717 241.778094 
L 168.540049 241.796347 
L 168.235381 241.813712 
L 167.930713 241.830227 
L 167.626044 241.845927 
L 167.321376 241.860848 
L 167.016708 241.875023 
L 166.712039 241.888485 
L 166.407371 241.901264 
L 166.102703 241.913393 
L 165.798034 241.924898 
L 165.493366 241.93581 
L 165.188698 241.946154 
L 164.884029 241.955957 
L 164.579361 241.965244 
L 164.274693 241.974039 
L 163.970025 241.982364 
L 163.665356 241.990244 
L 163.360688 241.997698 
L 163.05602 242.004747 
L 162.751351 242.011411 
L 162.446683 242.017709 
L 162.142015 242.023659 
L 161.837346 242.029278 
L 161.532678 242.034583 
L 161.22801 242.039589 
L 160.923342 242.044311 
L 160.618673 242.048765 
L 160.314005 242.052964 
L 160.009337 242.056921 
L 159.704668 242.060649 
L 159.4 242.06416 
L 159.095332 242.067466 
L 158.790663 242.070576 
L 158.485995 242.073503 
L 158.181327 242.076255 
L 157.876658 242.078843 
L 157.57199 242.081275 
L 157.267322 242.08356 
L 156.962654 242.085706 
L 156.657985 242.087721 
L 156.353317 242.089612 
L 156.048649 242.091386 
L 155.74398 242.09305 
L 155.439312 242.09461 
L 155.134644 242.096072 
L 154.829975 242.097442 
L 154.525307 242.098725 
L 154.220639 242.099926 
L 153.915971 242.101051 
L 153.611302 242.102103 
L 153.306634 242.103087 
L 153.001966 242.104007 
L 152.697297 242.104867 
L 152.392629 242.105671 
L 152.087961 242.106421 
L 151.783292 242.107122 
L 151.478624 242.107777 
L 151.173956 242.108387 
L 150.869287 242.108956 
L 150.564619 242.109488 
L 150.259951 242.109982 
L 149.955283 242.110444 
L 149.650614 242.110873 
L 149.345946 242.111274 
L 149.041278 242.111646 
L 148.736609 242.111993 
L 148.431941 242.112315 
L 148.127273 242.112615 
L 147.822604 242.112894 
L 147.517936 242.113153 
L 147.213268 242.113393 
L 146.9086 242.113617 
L 146.603931 242.113824 
L 146.299263 242.114017 
L 145.994595 242.114196 
L 145.689926 242.114361 
L 145.385258 242.114515 
L 145.08059 242.114658 
L 144.775921 242.114789 
L 144.471253 242.114912 
L 144.166585 242.115025 
L 143.861916 242.115129 
L 143.557248 242.115226 
L 143.25258 242.115316 
L 142.947912 242.115399 
L 142.643243 242.115475 
L 142.338575 242.115546 
L 142.033907 242.115612 
L 141.729238 242.115672 
L 141.42457 242.115728 
L 141.119902 242.115779 
L 140.815233 242.115827 
L 140.510565 242.11587 
L 140.205897 242.115911 
L 139.901229 242.115948 
L 139.59656 242.115982 
L 139.291892 242.116014 
L 138.987224 242.116043 
L 138.682555 242.116069 
L 138.377887 242.116094 
L 138.073219 242.116117 
L 137.76855 242.116137 
L 137.463882 242.116156 
L 137.159214 242.116174 
L 136.854545 242.11619 
L 136.549877 242.116205 
L 136.245209 242.116218 
L 135.940541 242.116231 
L 135.635872 242.116242 
L 135.331204 242.116253 
L 135.026536 242.116262 
L 134.721867 242.116271 
L 134.417199 242.116279 
L 134.112531 242.116287 
L 133.807862 242.116293 
L 133.503194 242.1163 
L 133.198526 242.116305 
L 132.893857 242.116311 
L 132.589189 242.116315 
L 132.284521 242.11632 
L 131.979853 242.116324 
L 131.675184 242.116327 
L 131.370516 242.11633 
L 131.065848 242.116333 
L 130.761179 242.116336 
L 130.456511 242.116339 
L 130.151843 242.116341 
L 129.847174 242.116343 
L 129.542506 242.116345 
L 129.237838 242.116347 
L 128.93317 242.116348 
L 128.628501 242.11635 
L 128.323833 242.116351 
L 128.019165 242.116352 
L 127.714496 242.116353 
L 127.409828 242.116354 
L 127.10516 242.116355 
L 126.800491 242.116356 
L 126.495823 242.116357 
L 126.191155 242.116357 
L 125.886486 242.116358 
L 125.581818 242.116358 
L 125.27715 242.116359 
L 124.972482 242.116359 
L 124.667813 242.11636 
L 124.363145 242.11636 
L 124.058477 242.116361 
L 123.753808 242.116361 
L 123.44914 242.116361 
L 123.144472 242.116361 
L 122.839803 242.116362 
L 122.535135 242.116362 
L 122.230467 242.116362 
L 121.925799 242.116362 
L 121.62113 242.116362 
L 121.316462 242.116362 
L 121.011794 242.116363 
L 120.707125 242.116363 
L 120.402457 242.116363 
L 120.097789 242.116363 
L 119.79312 242.116363 
L 119.488452 242.116363 
L 119.183784 242.116363 
L 118.879115 242.116363 
L 118.574447 242.116363 
L 118.269779 242.116363 
L 117.965111 242.116363 
L 117.660442 242.116363 
L 117.355774 242.116363 
L 117.051106 242.116363 
L 116.746437 242.116363 
L 116.441769 242.116363 
L 116.137101 242.116363 
L 115.832432 242.116363 
L 115.527764 242.116363 
L 115.223096 242.116363 
L 114.918428 242.116364 
L 114.613759 242.116364 
L 114.309091 242.116364 
L 114.004423 242.116364 
L 113.699754 242.116364 
L 113.395086 242.116364 
L 113.090418 242.116364 
L 112.785749 242.116364 
L 112.481081 242.116364 
L 112.176413 242.116364 
L 111.871744 242.116364 
L 111.567076 242.116364 
L 111.262408 242.116364 
L 110.95774 242.116364 
L 110.653071 242.116364 
L 110.348403 242.116364 
L 110.043735 242.116364 
L 109.739066 242.116364 
L 109.434398 242.116364 
L 109.12973 242.116364 
L 108.825061 242.116364 
L 108.520393 242.116364 
L 108.215725 242.116364 
L 107.911057 242.116364 
L 107.606388 242.116364 
L 107.30172 242.116364 
L 106.997052 242.116364 
L 106.692383 242.116364 
L 106.387715 242.116364 
L 106.083047 242.116364 
L 105.778378 242.116364 
L 105.47371 242.116364 
L 105.169042 242.116364 
L 104.864373 242.116364 
L 104.559705 242.116364 
L 104.255037 242.116364 
L 103.950369 242.116364 
L 103.6457 242.116364 
L 103.341032 242.116364 
L 103.036364 242.116364 
L 102.731695 242.116364 
L 102.427027 242.116364 
L 102.122359 242.116364 
L 101.81769 242.116364 
L 101.513022 242.116364 
L 101.208354 242.116364 
L 100.903686 242.116364 
L 100.599017 242.116364 
L 100.294349 242.116364 
L 99.989681 242.116364 
L 99.685012 242.116364 
L 99.380344 242.116364 
L 99.075676 242.116364 
L 98.771007 242.116364 
L 98.466339 242.116364 
L 98.161671 242.116364 
L 97.857002 242.116364 
L 97.552334 242.116364 
L 97.247666 242.116364 
L 96.942998 242.116364 
L 96.638329 242.116364 
L 96.333661 242.116364 
L 96.028993 242.116364 
L 95.724324 242.116364 
L 95.419656 242.116364 
L 95.114988 242.116364 
L 94.810319 242.116364 
L 94.505651 242.116364 
L 94.200983 242.116364 
L 93.896314 242.116364 
L 93.591646 242.116364 
L 93.286978 242.116364 
L 92.98231 242.116364 
L 92.677641 242.116364 
L 92.372973 242.116364 
L 92.068305 242.116364 
L 91.763636 242.116364 
L 91.458968 242.116364 
L 91.1543 242.116364 
L 90.849631 242.116364 
L 90.544963 242.116364 
L 90.240295 242.116364 
L 89.935627 242.116364 
L 89.630958 242.116364 
L 89.32629 242.116364 
L 89.021622 242.116364 
L 88.716953 242.116364 
L 88.412285 242.116364 
L 88.107617 242.116364 
L 87.802948 242.116364 
L 87.49828 242.116364 
L 87.193612 242.116364 
L 86.888943 242.116364 
L 86.584275 242.116364 
L 86.279607 242.116364 
L 85.974939 242.116364 
L 85.67027 242.116364 
L 85.365602 242.116364 
L 85.060934 242.116364 
L 84.756265 242.116364 
L 84.451597 242.116364 
L 84.146929 242.116364 
L 83.84226 242.116364 
L 83.537592 242.116364 
L 83.232924 242.116364 
L 82.928256 242.116364 
L 82.623587 242.116364 
L 82.318919 242.116364 
L 82.014251 242.116364 
L 81.709582 242.116364 
L 81.404914 242.116364 
L 81.100246 242.116364 
L 80.795577 242.116364 
L 80.490909 242.116364 
L 80.186241 242.116364 
L 79.881572 242.116364 
L 79.576904 242.116364 
L 79.272236 242.116364 
L 78.967568 242.116364 
L 78.662899 242.116364 
L 78.358231 242.116364 
L 78.053563 242.116364 
L 77.748894 242.116364 
L 77.444226 242.116364 
L 77.139558 242.116364 
L 76.834889 242.116364 
L 76.530221 242.116364 
L 76.225553 242.116364 
L 75.920885 242.116364 
L 75.616216 242.116364 
L 75.311548 242.116364 
L 75.00688 242.116364 
L 74.702211 242.116364 
L 74.397543 242.116364 
L 74.092875 242.116364 
L 73.788206 242.116364 
L 73.483538 242.116364 
L 73.17887 242.116364 
L 72.874201 242.116364 
L 72.569533 242.116364 
L 72.264865 242.116364 
L 71.960197 242.116364 
L 71.655528 242.116364 
L 71.35086 242.116364 
L 71.046192 242.116364 
L 70.741523 242.116364 
L 70.436855 242.116364 
L 70.132187 242.116364 
L 69.827518 242.116364 
L 69.52285 242.116364 
L 69.218182 242.116364 
z
" style="fill:url(#h7cd2e25ba4);stroke:#000000;"/>
   </g>
   <g id="matplotlib.axis_1">
    <g id="xtick_1">
     <g id="line2d_1">
      <defs>
       <path d="M 0 0 
L 0 3.5 
" id="mb2fc899a89" style="stroke:#000000;stroke-width:0.8;"/>
      </defs>
      <g>
       <use style="stroke:#000000;stroke-width:0.8;" x="69.218182" xlink:href="#mb2fc899a89" y="252"/>
      </g>
     </g>
     <g id="text_1">
      <!-- 10.0 -->
      <defs>
       <path d="M 10.59375 35.5 
L 73.1875 35.5 
L 73.1875 27.203125 
L 10.59375 27.203125 
z
" id="DejaVuSans-2212"/>
       <path d="M 12.40625 8.296875 
L 28.515625 8.296875 
L 28.515625 63.921875 
L 10.984375 60.40625 
L 10.984375 69.390625 
L 28.421875 72.90625 
L 38.28125 72.90625 
L 38.28125 8.296875 
L 54.390625 8.296875 
L 54.390625 0 
L 12.40625 0 
z
" id="DejaVuSans-31"/>
       <path d="M 31.78125 66.40625 
Q 24.171875 66.40625 20.328125 58.90625 
Q 16.5 51.421875 16.5 36.375 
Q 16.5 21.390625 20.328125 13.890625 
Q 24.171875 6.390625 31.78125 6.390625 
Q 39.453125 6.390625 43.28125 13.890625 
Q 47.125 21.390625 47.125 36.375 
Q 47.125 51.421875 43.28125 58.90625 
Q 39.453125 66.40625 31.78125 66.40625 
z
M 31.78125 74.21875 
Q 44.046875 74.21875 50.515625 64.515625 
Q 56.984375 54.828125 56.984375 36.375 
Q 56.984375 17.96875 50.515625 8.265625 
Q 44.046875 -1.421875 31.78125 -1.421875 
Q 19.53125 -1.421875 13.0625 8.265625 
Q 6.59375 17.96875 6.59375 36.375 
Q 6.59375 54.828125 13.0625 64.515625 
Q 19.53125 74.21875 31.78125 74.21875 
z
" id="DejaVuSans-30"/>
       <path d="M 10.6875 12.40625 
L 21 12.40625 
L 21 0 
L 10.6875 0 
z
" id="DejaVuSans-2e"/>
      </defs>
      <g transform="translate(53.895526 266.598437)scale(0.1 -0.1)">
       <use xlink:href="#DejaVuSans-2212"/>
       <use x="83.789062" xlink:href="#DejaVuSans-31"/>
       <use x="147.412109" xlink:href="#DejaVuSans-30"/>
       <use x="211.035156" xlink:href="#DejaVuSans-2e"/>
       <use x="242.822266" xlink:href="#DejaVuSans-30"/>
      </g>
     </g>
    </g>
    <g id="xtick_2">
     <g id="line2d_2">
      <g>
       <use style="stroke:#000000;stroke-width:0.8;" x="107.263636" xlink:href="#mb2fc899a89" y="252"/>
      </g>
     </g>
     <g id="text_2">
      <!-- 7.5 -->
      <defs>
       <path d="M 8.203125 72.90625 
L 55.078125 72.90625 
L 55.078125 68.703125 
L 28.609375 0 
L 18.3125 0 
L 43.21875 64.59375 
L 8.203125 64.59375 
z
" id="DejaVuSans-37"/>
       <path d="M 10.796875 72.90625 
L 49.515625 72.90625 
L 49.515625 64.59375 
L 19.828125 64.59375 
L 19.828125 46.734375 
Q 21.96875 47.46875 24.109375 47.828125 
Q 26.265625 48.1875 28.421875 48.1875 
Q 40.625 48.1875 47.75 41.5 
Q 54.890625 34.8125 54.890625 23.390625 
Q 54.890625 11.625 47.5625 5.09375 
Q 40.234375 -1.421875 26.90625 -1.421875 
Q 22.3125 -1.421875 17.546875 -0.640625 
Q 12.796875 0.140625 7.71875 1.703125 
L 7.71875 11.625 
Q 12.109375 9.234375 16.796875 8.0625 
Q 21.484375 6.890625 26.703125 6.890625 
Q 35.15625 6.890625 40.078125 11.328125 
Q 45.015625 15.765625 45.015625 23.390625 
Q 45.015625 31 40.078125 35.4375 
Q 35.15625 39.890625 26.703125 39.890625 
Q 22.75 39.890625 18.8125 39.015625 
Q 14.890625 38.140625 10.796875 36.28125 
z
" id="DejaVuSans-35"/>
      </defs>
      <g transform="translate(95.12223 266.598437)scale(0.1 -0.1)">
       <use xlink:href="#DejaVuSans-2212"/>
       <use x="83.789062" xlink:href="#DejaVuSans-37"/>
       <use x="147.412109" xlink:href="#DejaVuSans-2e"/>
       <use x="179.199219" xlink:href="#DejaVuSans-35"/>
      </g>
     </g>
    </g>
    <g id="xtick_3">
     <g id="line2d_3">
      <g>
       <use style="stroke:#000000;stroke-width:0.8;" x="145.309091" xlink:href="#mb2fc899a89" y="252"/>
      </g>
     </g>
     <g id="text_3">
      <!-- 5.0 -->
      <g transform="translate(133.167685 266.598437)scale(0.1 -0.1)">
       <use xlink:href="#DejaVuSans-2212"/>
       <use x="83.789062" xlink:href="#DejaVuSans-35"/>
       <use x="147.412109" xlink:href="#DejaVuSans-2e"/>
       <use x="179.199219" xlink:href="#DejaVuSans-30"/>
      </g>
     </g>
    </g>
    <g id="xtick_4">
     <g id="line2d_4">
      <g>
       <use style="stroke:#000000;stroke-width:0.8;" x="183.354545" xlink:href="#mb2fc899a89" y="252"/>
      </g>
     </g>
     <g id="text_4">
      <!-- 2.5 -->
      <defs>
       <path d="M 19.1875 8.296875 
L 53.609375 8.296875 
L 53.609375 0 
L 7.328125 0 
L 7.328125 8.296875 
Q 12.9375 14.109375 22.625 23.890625 
Q 32.328125 33.6875 34.8125 36.53125 
Q 39.546875 41.84375 41.421875 45.53125 
Q 43.3125 49.21875 43.3125 52.78125 
Q 43.3125 58.59375 39.234375 62.25 
Q 35.15625 65.921875 28.609375 65.921875 
Q 23.96875 65.921875 18.8125 64.3125 
Q 13.671875 62.703125 7.8125 59.421875 
L 7.8125 69.390625 
Q 13.765625 71.78125 18.9375 73 
Q 24.125 74.21875 28.421875 74.21875 
Q 39.75 74.21875 46.484375 68.546875 
Q 53.21875 62.890625 53.21875 53.421875 
Q 53.21875 48.921875 51.53125 44.890625 
Q 49.859375 40.875 45.40625 35.40625 
Q 44.1875 33.984375 37.640625 27.21875 
Q 31.109375 20.453125 19.1875 8.296875 
z
" id="DejaVuSans-32"/>
      </defs>
      <g transform="translate(171.213139 266.598437)scale(0.1 -0.1)">
       <use xlink:href="#DejaVuSans-2212"/>
       <use x="83.789062" xlink:href="#DejaVuSans-32"/>
       <use x="147.412109" xlink:href="#DejaVuSans-2e"/>
       <use x="179.199219" xlink:href="#DejaVuSans-35"/>
      </g>
     </g>
    </g>
    <g id="xtick_5">
     <g id="line2d_5">
      <g>
       <use style="stroke:#000000;stroke-width:0.8;" x="221.4" xlink:href="#mb2fc899a89" y="252"/>
      </g>
     </g>
     <g id="text_5">
      <!-- 0.0 -->
      <g transform="translate(213.448438 266.598437)scale(0.1 -0.1)">
       <use xlink:href="#DejaVuSans-30"/>
       <use x="63.623047" xlink:href="#DejaVuSans-2e"/>
       <use x="95.410156" xlink:href="#DejaVuSans-30"/>
      </g>
     </g>
    </g>
    <g id="xtick_6">
     <g id="line2d_6">
      <g>
       <use style="stroke:#000000;stroke-width:0.8;" x="259.445455" xlink:href="#mb2fc899a89" y="252"/>
      </g>
     </g>
     <g id="text_6">
      <!-- 2.5 -->
      <g transform="translate(251.493892 266.598437)scale(0.1 -0.1)">
       <use xlink:href="#DejaVuSans-32"/>
       <use x="63.623047" xlink:href="#DejaVuSans-2e"/>
       <use x="95.410156" xlink:href="#DejaVuSans-35"/>
      </g>
     </g>
    </g>
    <g id="xtick_7">
     <g id="line2d_7">
      <g>
       <use style="stroke:#000000;stroke-width:0.8;" x="297.490909" xlink:href="#mb2fc899a89" y="252"/>
      </g>
     </g>
     <g id="text_7">
      <!-- 5.0 -->
      <g transform="translate(289.539347 266.598437)scale(0.1 -0.1)">
       <use xlink:href="#DejaVuSans-35"/>
       <use x="63.623047" xlink:href="#DejaVuSans-2e"/>
       <use x="95.410156" xlink:href="#DejaVuSans-30"/>
      </g>
     </g>
    </g>
    <g id="xtick_8">
     <g id="line2d_8">
      <g>
       <use style="stroke:#000000;stroke-width:0.8;" x="335.536364" xlink:href="#mb2fc899a89" y="252"/>
      </g>
     </g>
     <g id="text_8">
      <!-- 7.5 -->
      <g transform="translate(327.584801 266.598437)scale(0.1 -0.1)">
       <use xlink:href="#DejaVuSans-37"/>
       <use x="63.623047" xlink:href="#DejaVuSans-2e"/>
       <use x="95.410156" xlink:href="#DejaVuSans-35"/>
      </g>
     </g>
    </g>
    <g id="xtick_9">
     <g id="line2d_9">
      <g>
       <use style="stroke:#000000;stroke-width:0.8;" x="373.581818" xlink:href="#mb2fc899a89" y="252"/>
      </g>
     </g>
     <g id="text_9">
      <!-- 10.0 -->
      <g transform="translate(362.449006 266.598437)scale(0.1 -0.1)">
       <use xlink:href="#DejaVuSans-31"/>
       <use x="63.623047" xlink:href="#DejaVuSans-30"/>
       <use x="127.246094" xlink:href="#DejaVuSans-2e"/>
       <use x="159.033203" xlink:href="#DejaVuSans-30"/>
      </g>
     </g>
    </g>
    <g id="text_10">
     <!-- $\mathbf{r}$ -->
     <defs>
      <path d="M 49.03125 39.796875 
Q 46.734375 40.875 44.453125 41.375 
Q 42.1875 41.890625 39.890625 41.890625 
Q 33.15625 41.890625 29.515625 37.5625 
Q 25.875 33.25 25.875 25.203125 
L 25.875 0 
L 8.40625 0 
L 8.40625 54.6875 
L 25.875 54.6875 
L 25.875 45.703125 
Q 29.25 51.078125 33.609375 53.53125 
Q 37.984375 56 44.09375 56 
Q 44.96875 56 45.984375 55.921875 
Q 47.015625 55.859375 48.96875 55.609375 
z
" id="DejaVuSans-Bold-72"/>
     </defs>
     <g transform="translate(218.9 280.276563)scale(0.1 -0.1)">
      <use xlink:href="#DejaVuSans-Bold-72"/>
     </g>
    </g>
   </g>
   <g id="matplotlib.axis_2">
    <g id="ytick_1">
     <g id="line2d_10">
      <defs>
       <path d="M 0 0 
L -3.5 0 
" id="m8e0a81a40c" style="stroke:#000000;stroke-width:0.8;"/>
      </defs>
      <g>
       <use style="stroke:#000000;stroke-width:0.8;" x="54" xlink:href="#m8e0a81a40c" y="242.116364"/>
      </g>
     </g>
     <g id="text_11">
      <!-- 0.0 -->
      <g transform="translate(31.096875 245.915582)scale(0.1 -0.1)">
       <use xlink:href="#DejaVuSans-30"/>
       <use x="63.623047" xlink:href="#DejaVuSans-2e"/>
       <use x="95.410156" xlink:href="#DejaVuSans-30"/>
      </g>
     </g>
    </g>
    <g id="ytick_2">
     <g id="line2d_11">
      <g>
       <use style="stroke:#000000;stroke-width:0.8;" x="54" xlink:href="#m8e0a81a40c" y="202.581311"/>
      </g>
     </g>
     <g id="text_12">
      <!-- 0.2 -->
      <g transform="translate(31.096875 206.38053)scale(0.1 -0.1)">
       <use xlink:href="#DejaVuSans-30"/>
       <use x="63.623047" xlink:href="#DejaVuSans-2e"/>
       <use x="95.410156" xlink:href="#DejaVuSans-32"/>
      </g>
     </g>
    </g>
    <g id="ytick_3">
     <g id="line2d_12">
      <g>
       <use style="stroke:#000000;stroke-width:0.8;" x="54" xlink:href="#m8e0a81a40c" y="163.046259"/>
      </g>
     </g>
     <g id="text_13">
      <!-- 0.4 -->
      <defs>
       <path d="M 37.796875 64.3125 
L 12.890625 25.390625 
L 37.796875 25.390625 
z
M 35.203125 72.90625 
L 47.609375 72.90625 
L 47.609375 25.390625 
L 58.015625 25.390625 
L 58.015625 17.1875 
L 47.609375 17.1875 
L 47.609375 0 
L 37.796875 0 
L 37.796875 17.1875 
L 4.890625 17.1875 
L 4.890625 26.703125 
z
" id="DejaVuSans-34"/>
      </defs>
      <g transform="translate(31.096875 166.845477)scale(0.1 -0.1)">
       <use xlink:href="#DejaVuSans-30"/>
       <use x="63.623047" xlink:href="#DejaVuSans-2e"/>
       <use x="95.410156" xlink:href="#DejaVuSans-34"/>
      </g>
     </g>
    </g>
    <g id="ytick_4">
     <g id="line2d_13">
      <g>
       <use style="stroke:#000000;stroke-width:0.8;" x="54" xlink:href="#m8e0a81a40c" y="123.511206"/>
      </g>
     </g>
     <g id="text_14">
      <!-- 0.6 -->
      <defs>
       <path d="M 33.015625 40.375 
Q 26.375 40.375 22.484375 35.828125 
Q 18.609375 31.296875 18.609375 23.390625 
Q 18.609375 15.53125 22.484375 10.953125 
Q 26.375 6.390625 33.015625 6.390625 
Q 39.65625 6.390625 43.53125 10.953125 
Q 47.40625 15.53125 47.40625 23.390625 
Q 47.40625 31.296875 43.53125 35.828125 
Q 39.65625 40.375 33.015625 40.375 
z
M 52.59375 71.296875 
L 52.59375 62.3125 
Q 48.875 64.0625 45.09375 64.984375 
Q 41.3125 65.921875 37.59375 65.921875 
Q 27.828125 65.921875 22.671875 59.328125 
Q 17.53125 52.734375 16.796875 39.40625 
Q 19.671875 43.65625 24.015625 45.921875 
Q 28.375 48.1875 33.59375 48.1875 
Q 44.578125 48.1875 50.953125 41.515625 
Q 57.328125 34.859375 57.328125 23.390625 
Q 57.328125 12.15625 50.6875 5.359375 
Q 44.046875 -1.421875 33.015625 -1.421875 
Q 20.359375 -1.421875 13.671875 8.265625 
Q 6.984375 17.96875 6.984375 36.375 
Q 6.984375 53.65625 15.1875 63.9375 
Q 23.390625 74.21875 37.203125 74.21875 
Q 40.921875 74.21875 44.703125 73.484375 
Q 48.484375 72.75 52.59375 71.296875 
z
" id="DejaVuSans-36"/>
      </defs>
      <g transform="translate(31.096875 127.310425)scale(0.1 -0.1)">
       <use xlink:href="#DejaVuSans-30"/>
       <use x="63.623047" xlink:href="#DejaVuSans-2e"/>
       <use x="95.410156" xlink:href="#DejaVuSans-36"/>
      </g>
     </g>
    </g>
    <g id="ytick_5">
     <g id="line2d_14">
      <g>
       <use style="stroke:#000000;stroke-width:0.8;" x="54" xlink:href="#m8e0a81a40c" y="83.976154"/>
      </g>
     </g>
     <g id="text_15">
      <!-- 0.8 -->
      <defs>
       <path d="M 31.78125 34.625 
Q 24.75 34.625 20.71875 30.859375 
Q 16.703125 27.09375 16.703125 20.515625 
Q 16.703125 13.921875 20.71875 10.15625 
Q 24.75 6.390625 31.78125 6.390625 
Q 38.8125 6.390625 42.859375 10.171875 
Q 46.921875 13.96875 46.921875 20.515625 
Q 46.921875 27.09375 42.890625 30.859375 
Q 38.875 34.625 31.78125 34.625 
z
M 21.921875 38.8125 
Q 15.578125 40.375 12.03125 44.71875 
Q 8.5 49.078125 8.5 55.328125 
Q 8.5 64.0625 14.71875 69.140625 
Q 20.953125 74.21875 31.78125 74.21875 
Q 42.671875 74.21875 48.875 69.140625 
Q 55.078125 64.0625 55.078125 55.328125 
Q 55.078125 49.078125 51.53125 44.71875 
Q 48 40.375 41.703125 38.8125 
Q 48.828125 37.15625 52.796875 32.3125 
Q 56.78125 27.484375 56.78125 20.515625 
Q 56.78125 9.90625 50.3125 4.234375 
Q 43.84375 -1.421875 31.78125 -1.421875 
Q 19.734375 -1.421875 13.25 4.234375 
Q 6.78125 9.90625 6.78125 20.515625 
Q 6.78125 27.484375 10.78125 32.3125 
Q 14.796875 37.15625 21.921875 38.8125 
z
M 18.3125 54.390625 
Q 18.3125 48.734375 21.84375 45.5625 
Q 25.390625 42.390625 31.78125 42.390625 
Q 38.140625 42.390625 41.71875 45.5625 
Q 45.3125 48.734375 45.3125 54.390625 
Q 45.3125 60.0625 41.71875 63.234375 
Q 38.140625 66.40625 31.78125 66.40625 
Q 25.390625 66.40625 21.84375 63.234375 
Q 18.3125 60.0625 18.3125 54.390625 
z
" id="DejaVuSans-38"/>
      </defs>
      <g transform="translate(31.096875 87.775372)scale(0.1 -0.1)">
       <use xlink:href="#DejaVuSans-30"/>
       <use x="63.623047" xlink:href="#DejaVuSans-2e"/>
       <use x="95.410156" xlink:href="#DejaVuSans-38"/>
      </g>
     </g>
    </g>
    <g id="ytick_6">
     <g id="line2d_15">
      <g>
       <use style="stroke:#000000;stroke-width:0.8;" x="54" xlink:href="#m8e0a81a40c" y="44.441101"/>
      </g>
     </g>
     <g id="text_16">
      <!-- 1.0 -->
      <g transform="translate(31.096875 48.24032)scale(0.1 -0.1)">
       <use xlink:href="#DejaVuSans-31"/>
       <use x="63.623047" xlink:href="#DejaVuSans-2e"/>
       <use x="95.410156" xlink:href="#DejaVuSans-30"/>
      </g>
     </g>
    </g>
   </g>
   <g id="line2d_16">
    <path clip-path="url(#pbc04455163)" d="M 69.218182 242.115818 
L 97.857002 242.005521 
L 105.47371 241.757531 
L 110.348403 241.394303 
L 114.309091 240.879873 
L 117.355774 240.280294 
L 120.097789 239.531338 
L 122.535135 238.650612 
L 124.972482 237.517253 
L 127.10516 236.274715 
L 129.237838 234.754542 
L 131.065848 233.196263 
L 132.893857 231.370343 
L 134.721867 229.245164 
L 136.549877 226.788421 
L 138.377887 223.967806 
L 140.205897 220.751809 
L 142.033907 217.110663 
L 143.861916 213.017391 
L 145.994595 207.640005 
L 148.127273 201.588525 
L 150.259951 194.847648 
L 152.392629 187.416975 
L 154.829975 178.102808 
L 157.57199 166.646912 
L 160.618673 152.867991 
L 164.579361 133.756359 
L 173.414742 90.603102 
L 176.156757 78.538302 
L 178.289435 70.045999 
L 180.117445 63.536893 
L 181.945455 57.848146 
L 183.468796 53.801414 
L 184.992138 50.435612 
L 186.210811 48.25994 
L 187.429484 46.56184 
L 188.343489 45.609582 
L 189.257494 44.937398 
L 190.171499 44.548189 
L 191.085504 44.443636 
L 191.999509 44.624192 
L 192.913514 45.089076 
L 193.827518 45.83628 
L 194.741523 46.862582 
L 195.960197 48.657345 
L 197.17887 50.926667 
L 198.397543 53.653421 
L 199.920885 57.673766 
L 201.444226 62.330378 
L 203.272236 68.683381 
L 205.404914 77.020751 
L 207.84226 87.553485 
L 210.888943 101.818547 
L 216.068305 127.412145 
L 220.942998 151.151869 
L 224.294349 166.381471 
L 227.036364 177.85912 
L 229.47371 187.194658 
L 231.911057 195.653084 
L 234.043735 202.314849 
L 236.176413 208.288261 
L 238.309091 213.590159 
L 240.441769 218.249318 
L 242.269779 221.759938 
L 244.097789 224.854096 
L 245.925799 227.562188 
L 247.753808 229.916055 
L 249.581818 231.948084 
L 251.409828 233.690438 
L 253.542506 235.398754 
L 255.675184 236.802625 
L 257.807862 237.945999 
L 260.245209 238.984968 
L 262.682555 239.7891 
L 265.42457 240.470039 
L 268.775921 241.056818 
L 272.736609 241.502512 
L 277.611302 241.814266 
L 284.618673 242.014904 
L 297.110074 242.104608 
L 355.606388 242.116364 
L 373.581818 242.116364 
L 373.581818 242.116364 
" style="fill:none;stroke:#1f77b4;stroke-linecap:square;stroke-width:1.5;"/>
   </g>
   <g id="line2d_17">
    <path clip-path="url(#pbc04455163)" d="M 69.218182 242.116364 
L 158.485995 242.009787 
L 166.102703 241.770233 
L 171.282064 241.388153 
L 175.242752 240.869862 
L 178.289435 240.266021 
L 181.03145 239.511995 
L 183.468796 238.625574 
L 185.906143 237.485215 
L 188.038821 236.235342 
L 190.171499 234.706586 
L 191.999509 233.139883 
L 193.827518 231.304503 
L 195.655528 229.168794 
L 197.483538 226.700441 
L 199.311548 223.867147 
L 201.139558 220.637445 
L 202.967568 216.981645 
L 204.795577 212.87288 
L 206.928256 207.476564 
L 209.060934 201.405535 
L 211.193612 194.644878 
L 213.32629 187.194658 
L 215.763636 177.85912 
L 218.505651 166.381471 
L 221.552334 152.5828 
L 225.513022 133.4554 
L 234.043735 91.726008 
L 236.785749 79.563095 
L 238.918428 70.97041 
L 240.746437 64.359535 
L 242.574447 58.555791 
L 244.097789 54.404262 
L 245.62113 50.926667 
L 246.839803 48.657345 
L 248.058477 46.862582 
L 248.972482 45.83628 
L 249.886486 45.089076 
L 250.800491 44.624192 
L 251.714496 44.443636 
L 252.628501 44.548189 
L 253.542506 44.937398 
L 254.456511 45.609582 
L 255.370516 46.56184 
L 256.284521 47.790076 
L 257.503194 49.847762 
L 258.721867 52.371006 
L 260.245209 56.150574 
L 261.76855 60.5839 
L 263.59656 66.695145 
L 265.42457 73.576205 
L 267.557248 82.432797 
L 270.299263 94.849206 
L 273.955283 112.559458 
L 282.485995 154.288825 
L 285.532678 167.967356 
L 288.274693 179.313499 
L 290.712039 188.520291 
L 293.149386 196.844288 
L 295.282064 203.387454 
L 297.414742 209.244187 
L 299.54742 214.433568 
L 301.680098 218.986144 
L 303.508108 222.411143 
L 305.336118 225.425596 
L 307.164128 228.060266 
L 308.992138 230.347171 
L 310.820147 232.318711 
L 312.648157 234.006924 
L 314.780835 235.659775 
L 316.913514 237.015969 
L 319.046192 238.118825 
L 321.483538 239.119354 
L 324.225553 239.975352 
L 327.272236 240.665236 
L 330.623587 241.187699 
L 334.584275 241.581915 
L 339.763636 241.867268 
L 347.380344 242.041847 
L 362.309091 242.11113 
L 373.581818 242.115818 
L 373.581818 242.115818 
" style="fill:none;stroke:#ff7f0e;stroke-linecap:square;stroke-width:1.5;"/>
   </g>
   <g id="line2d_18">
    <path clip-path="url(#pbc04455163)" d="M 69.218182 242.116364 
L 162.751351 242.011411 
L 168.844717 241.778094 
L 173.110074 241.405294 
L 176.461425 240.896605 
L 179.20344 240.273505 
L 181.640786 239.51424 
L 184.078133 238.516786 
L 186.210811 237.414729 
L 188.343489 236.070993 
L 190.476167 234.464388 
L 192.608845 232.581799 
L 194.741523 230.421241 
L 197.17887 227.627793 
L 199.920885 224.126783 
L 203.576904 219.059377 
L 209.060934 211.434862 
L 211.49828 208.423465 
L 213.630958 206.157443 
L 215.458968 204.566726 
L 216.98231 203.529256 
L 218.505651 202.779713 
L 219.724324 202.399499 
L 220.942998 202.22081 
L 222.161671 202.246386 
L 223.380344 202.475835 
L 224.599017 202.90564 
L 226.122359 203.7144 
L 227.6457 204.806754 
L 229.169042 206.157443 
L 230.997052 208.075979 
L 233.12973 210.647753 
L 235.871744 214.320075 
L 245.011794 226.879759 
L 247.753808 230.090403 
L 250.191155 232.581799 
L 252.323833 234.464388 
L 254.456511 236.070993 
L 256.589189 237.414729 
L 258.721867 238.516786 
L 261.159214 239.51424 
L 263.59656 240.273505 
L 266.338575 240.896605 
L 269.385258 241.368343 
L 273.345946 241.738768 
L 278.525307 241.974039 
L 286.751351 242.091386 
L 311.429484 242.11633 
L 373.581818 242.116364 
L 373.581818 242.116364 
" style="fill:none;stroke:#2ca02c;stroke-linecap:square;stroke-width:1.5;"/>
   </g>
   <g id="patch_2">
    <path d="M 337.252523 89.077884 
Q 310.007226 87.874794 282.76193 86.671705 
L 282.585471 90.66781 
Q 276.722592 87.405996 270.859713 84.144181 
Q 276.98728 81.411837 283.114848 78.679493 
L 282.938389 82.675599 
Q 310.183685 83.878689 337.428982 85.081778 
L 337.252523 89.077884 
z
" style="stroke:#000000;stroke-linecap:round;"/>
   </g>
   <g id="text_17">
    <!-- $\phi_2(\mathbf{r}$) -->
    <defs>
     <path d="M 46.734375 75.984375 
L 42.78125 55.8125 
Q 52.546875 55.8125 57.5625 48.34375 
Q 62.75 40.71875 60.15625 27.296875 
Q 57.515625 13.875 49.359375 6.25 
Q 41.453125 -1.21875 31.6875 -1.21875 
L 27.875 -20.796875 
L 18.953125 -20.796875 
L 22.75 -1.21875 
Q 13.03125 -1.21875 7.953125 6.25 
Q 2.78125 13.875 5.421875 27.296875 
Q 8.015625 40.71875 16.15625 48.34375 
Q 24.125 55.8125 33.84375 55.8125 
L 37.796875 75.984375 
z
M 33.25 6.78125 
Q 38.765625 6.78125 43.5 11.8125 
Q 48.6875 17.4375 50.6875 27.296875 
Q 52.640625 37.0625 49.515625 42.78125 
Q 46.734375 47.796875 41.21875 47.796875 
z
M 24.3125 6.78125 
L 32.28125 47.796875 
Q 26.8125 47.796875 22.078125 42.78125 
Q 16.75 37.0625 14.890625 27.296875 
Q 13.03125 17.4375 16.0625 11.8125 
Q 18.796875 6.78125 24.3125 6.78125 
z
" id="DejaVuSans-Oblique-3d5"/>
     <path d="M 31 75.875 
Q 24.46875 64.65625 21.28125 53.65625 
Q 18.109375 42.671875 18.109375 31.390625 
Q 18.109375 20.125 21.3125 9.0625 
Q 24.515625 -2 31 -13.1875 
L 23.1875 -13.1875 
Q 15.875 -1.703125 12.234375 9.375 
Q 8.59375 20.453125 8.59375 31.390625 
Q 8.59375 42.28125 12.203125 53.3125 
Q 15.828125 64.359375 23.1875 75.875 
z
" id="DejaVuSans-28"/>
     <path d="M 8.015625 75.875 
L 15.828125 75.875 
Q 23.140625 64.359375 26.78125 53.3125 
Q 30.421875 42.28125 30.421875 31.390625 
Q 30.421875 20.453125 26.78125 9.375 
Q 23.140625 -1.703125 15.828125 -13.1875 
L 8.015625 -13.1875 
Q 14.5 -2 17.703125 9.0625 
Q 20.90625 20.125 20.90625 31.390625 
Q 20.90625 42.671875 17.703125 53.65625 
Q 14.5 64.65625 8.015625 75.875 
z
" id="DejaVuSans-29"/>
    </defs>
    <g style="fill:#ffa500;" transform="translate(343.145455 83.976154)scale(0.16 -0.16)">
     <use transform="translate(0 0.015625)" xlink:href="#DejaVuSans-Oblique-3d5"/>
     <use transform="translate(65.966797 -16.390625)scale(0.7)" xlink:href="#DejaVuSans-32"/>
     <use transform="translate(113.237305 0.015625)" xlink:href="#DejaVuSans-28"/>
     <use transform="translate(152.250977 0.015625)" xlink:href="#DejaVuSans-Bold-72"/>
     <use transform="translate(201.567383 0.015625)" xlink:href="#DejaVuSans-29"/>
    </g>
   </g>
   <g id="patch_3">
    <path d="M 141.91621 84.996759 
Q 151.828022 84.109392 161.739835 83.222025 
L 161.383156 79.237959 
Q 167.625679 81.691088 173.868201 84.144217 
Q 168.160696 87.667187 162.453191 91.190156 
L 162.096513 87.206091 
Q 152.184701 88.093457 142.272889 88.980824 
L 141.91621 84.996759 
z
" style="stroke:#000000;stroke-linecap:round;"/>
   </g>
   <g id="text_18">
    <!-- $\phi_1(\mathbf{r})$ -->
    <g style="fill:#0000ff;" transform="translate(99.654545 83.976154)scale(0.16 -0.16)">
     <use transform="translate(0 0.015625)" xlink:href="#DejaVuSans-Oblique-3d5"/>
     <use transform="translate(65.966797 -16.390625)scale(0.7)" xlink:href="#DejaVuSans-31"/>
     <use transform="translate(113.237305 0.015625)" xlink:href="#DejaVuSans-28"/>
     <use transform="translate(152.250977 0.015625)" xlink:href="#DejaVuSans-Bold-72"/>
     <use transform="translate(201.567383 0.015625)" xlink:href="#DejaVuSans-29"/>
    </g>
   </g>
   <g id="patch_4">
    <path d="M 157.422049 169.218577 
Q 183.555013 189.879196 209.687978 210.539816 
L 212.168724 207.401998 
Q 215.015976 213.477339 217.863227 219.552679 
Q 211.294857 218.184065 204.726486 216.815451 
L 207.207232 213.677633 
Q 181.074267 193.017014 154.941303 172.356394 
L 157.422049 169.218577 
z
" style="stroke:#000000;stroke-linecap:round;"/>
   </g>
   <g id="text_19">
    <!-- $\phi_1(\mathbf{r}) \times \phi_2(\mathbf{r})$ -->
    <defs>
     <path d="M 70.125 53.71875 
L 47.796875 31.296875 
L 70.125 8.984375 
L 64.3125 3.078125 
L 41.890625 25.484375 
L 19.484375 3.078125 
L 13.71875 8.984375 
L 35.984375 31.296875 
L 13.71875 53.71875 
L 19.484375 59.625 
L 41.890625 37.203125 
L 64.3125 59.625 
z
" id="DejaVuSans-d7"/>
    </defs>
    <g style="fill:#008000;" transform="translate(54 163.046259)scale(0.16 -0.16)">
     <use transform="translate(0 0.015625)" xlink:href="#DejaVuSans-Oblique-3d5"/>
     <use transform="translate(65.966797 -16.390625)scale(0.7)" xlink:href="#DejaVuSans-31"/>
     <use transform="translate(113.237305 0.015625)" xlink:href="#DejaVuSans-28"/>
     <use transform="translate(152.250977 0.015625)" xlink:href="#DejaVuSans-Bold-72"/>
     <use transform="translate(201.567383 0.015625)" xlink:href="#DejaVuSans-29"/>
     <use transform="translate(260.063477 0.015625)" xlink:href="#DejaVuSans-d7"/>
     <use transform="translate(363.334961 0.015625)" xlink:href="#DejaVuSans-Oblique-3d5"/>
     <use transform="translate(429.301758 -16.390625)scale(0.7)" xlink:href="#DejaVuSans-32"/>
     <use transform="translate(476.572266 0.015625)" xlink:href="#DejaVuSans-28"/>
     <use transform="translate(515.585938 0.015625)" xlink:href="#DejaVuSans-Bold-72"/>
     <use transform="translate(564.902344 0.015625)" xlink:href="#DejaVuSans-29"/>
    </g>
   </g>
  </g>
 </g>
 <defs>
  <clipPath id="pbc04455163">
   <rect height="217.44" width="334.8" x="54" y="34.56"/>
  </clipPath>
 </defs>
 <defs>
  <pattern height="72" id="h7cd2e25ba4" patternUnits="userSpaceOnUse" width="72" x="0" y="0">
   <rect fill="none" height="73" width="73" x="0" y="0"/>
   <path d="M -36 36 
L 36 -36 
M -30 42 
L 42 -30 
M -24 48 
L 48 -24 
M -18 54 
L 54 -18 
M -12 60 
L 60 -12 
M -6 66 
L 66 -6 
M 0 72 
L 72 0 
M 6 78 
L 78 6 
M 12 84 
L 84 12 
M 18 90 
L 90 18 
M 24 96 
L 96 24 
M 30 102 
L 102 30 
M 36 108 
L 108 36 
" style="fill:#000000;stroke:#000000;stroke-linecap:butt;stroke-linejoin:miter;stroke-width:1.0;"/>
  </pattern>
 </defs>
</svg>
